<?xml version="1.0" encoding="UTF-8" standalone="no"?>
<svg
   width="500"
   zoomAndPan="magnify"
   viewBox="0 0 375 374.999991"
   height="500"
   preserveAspectRatio="xMidYMid meet"
   version="1.0"
   id="svg100"
   sodipodi:docname="asHoriLogo.svg"
   inkscape:version="1.3 (0e150ed6c4, 2023-07-21)"
   inkscape:export-filename="asHoriLogo.svg"
   inkscape:export-xdpi="96"
   inkscape:export-ydpi="96"
   xmlns:inkscape="http://www.inkscape.org/namespaces/inkscape"
   xmlns:sodipodi="http://sodipodi.sourceforge.net/DTD/sodipodi-0.dtd"
   xmlns="http://www.w3.org/2000/svg"
   xmlns:svg="http://www.w3.org/2000/svg">
  <sodipodi:namedview
     id="namedview100"
     pagecolor="#ffffff"
     bordercolor="#000000"
     borderopacity="0.25"
     inkscape:showpageshadow="2"
     inkscape:pageopacity="0.0"
     inkscape:pagecheckerboard="0"
     inkscape:deskcolor="#d1d1d1"
     inkscape:zoom="1.412"
     inkscape:cx="250"
     inkscape:cy="249.64589"
     inkscape:window-width="1920"
     inkscape:window-height="991"
     inkscape:window-x="-9"
     inkscape:window-y="-9"
     inkscape:window-maximized="1"
     inkscape:current-layer="svg100" />
  <defs
     id="defs1">
    <g
       id="g1" />
    <clipPath
       id="eca93cc14c">
      <path
         d="M 11.25 145.25 L 64 145.25 L 64 216 L 11.25 216 Z M 11.25 145.25 "
         clip-rule="nonzero"
         id="path1" />
    </clipPath>
  </defs>
  <g
     clip-path="url(#eca93cc14c)"
     id="g2">
    <path
       fill="#ad8174"
       d="M 63.050781 146.316406 C 62.277344 152.113281 60.859375 157.894531 58.371094 163.203125 C 55.492188 169.371094 51.238281 174.359375 45.757812 178.367188 C 40.425781 182.261719 34.566406 185.449219 29.738281 189.996094 C 24.925781 194.511719 21.804688 200.085938 21.332031 206.734375 C 21.113281 209.730469 21.371094 212.691406 21.804688 215.625 C 16.390625 209.488281 12.71875 201.773438 11.585938 193.257812 L 20.339844 184.527344 C 20.53125 184.328125 20.757812 184.1875 21.011719 184.09375 C 23.726562 183.121094 27.679688 181.953125 32.097656 178.886719 C 34.691406 177.066406 37.550781 174.8125 40.625 171.992188 C 46.644531 166.457031 49.464844 161.667969 50.691406 157.960938 C 52.058594 153.792969 51.4375 150.984375 51.125 149.984375 C 51.066406 149.824219 50.859375 149.710938 50.757812 149.804688 L 46.730469 153.5 L 25.292969 173.171875 L 11.257812 185.574219 C 12.332031 163.121094 30.878906 145.25 53.605469 145.25 C 56.851562 145.25 60.011719 145.625 63.050781 146.316406 Z M 63.050781 146.316406 "
       fill-opacity="1"
       fill-rule="nonzero"
       id="path2" />
  </g>
  <path
     fill="#c7493a"
     d="M 89.597656 183.707031 L 78.066406 165.082031 C 77.925781 164.835938 77.617188 164.761719 77.371094 164.902344 L 77.144531 165.023438 C 76.890625 165.175781 76.804688 165.496094 76.945312 165.742188 L 85.511719 180.792969 C 85.652344 181.046875 85.566406 181.367188 85.3125 181.507812 L 84.710938 181.847656 C 84.464844 182 84.144531 181.902344 84.003906 181.660156 L 75.425781 166.609375 C 75.285156 166.355469 74.964844 166.269531 74.71875 166.410156 L 74.238281 166.683594 C 73.984375 166.824219 73.898438 167.144531 74.039062 167.402344 L 82.605469 182.449219 C 82.746094 182.695312 82.664062 183.015625 82.40625 183.160156 L 81.804688 183.507812 C 81.558594 183.648438 81.238281 183.5625 81.085938 183.308594 L 72.519531 168.257812 C 72.378906 168.003906 72.058594 167.917969 71.804688 168.0625 L 71.324219 168.335938 C 71.078125 168.476562 70.984375 168.796875 71.132812 169.050781 L 79.699219 184.101562 C 79.839844 184.355469 79.757812 184.675781 79.503906 184.816406 L 78.898438 185.15625 C 78.644531 185.300781 78.324219 185.214844 78.179688 184.960938 L 69.613281 169.910156 C 69.472656 169.664062 69.152344 169.570312 68.898438 169.71875 L 68.417969 169.992188 C 68.171875 170.136719 68.078125 170.457031 68.21875 170.703125 L 76.792969 185.75 C 76.9375 186.007812 76.851562 186.328125 76.597656 186.46875 L 75.992188 186.816406 C 75.738281 186.957031 75.417969 186.875 75.277344 186.617188 L 66.710938 171.570312 C 66.566406 171.3125 66.246094 171.230469 65.992188 171.371094 L 65.71875 171.53125 C 65.472656 171.664062 65.378906 171.972656 65.511719 172.230469 L 75.691406 191.617188 C 77.445312 194.691406 81.226562 195.890625 84.40625 194.484375 L 91.3125 206.980469 C 87.917969 213.578125 82.824219 219.179688 76.625 223.199219 C 72.746094 218.605469 70.984375 212.34375 69.699219 206.5625 C 67.878906 198.351562 66.285156 190.128906 60.785156 183.46875 C 58.285156 180.453125 55.210938 177.925781 51.785156 176.027344 C 54.992188 172.925781 57.671875 169.390625 59.710938 165.296875 C 62.597656 159.515625 64.21875 153.21875 65.105469 146.832031 C 82.925781 151.851562 95.992188 168.203125 95.992188 187.617188 C 95.992188 192.824219 95.058594 197.804688 93.339844 202.40625 L 87.625 192.652344 C 90.445312 190.644531 91.351562 186.78125 89.597656 183.707031 Z M 89.597656 183.707031 "
     fill-opacity="1"
     fill-rule="nonzero"
     id="path3" />
  <path
     fill="#689775"
     d="M 74.8125 224.300781 C 68.566406 227.914062 61.332031 229.996094 53.605469 229.996094 C 52.597656 229.996094 51.605469 229.960938 50.617188 229.894531 L 50.445312 216.523438 C 54.8125 215.171875 58.105469 209.136719 58.105469 201.894531 C 58.105469 193.652344 53.839844 186.976562 48.585938 186.976562 C 43.332031 186.976562 39.058594 193.652344 39.058594 201.894531 C 39.058594 209.136719 42.359375 215.171875 46.726562 216.523438 L 46.566406 229.414062 C 38.039062 227.988281 30.371094 224.007812 24.371094 218.292969 C 23.859375 215.445312 23.445312 212.578125 23.378906 209.675781 C 23.304688 206.101562 23.785156 202.480469 25.339844 199.238281 C 26.726562 196.332031 28.777344 193.832031 31.097656 191.625 C 35.972656 186.996094 41.953125 183.828125 47.3125 179.839844 C 48.292969 179.113281 49.21875 178.339844 50.125 177.546875 C 57.191406 181.28125 62.246094 187.5625 64.730469 195.144531 C 67.292969 202.980469 67.824219 211.371094 71.40625 218.878906 C 72.332031 220.832031 73.464844 222.660156 74.8125 224.300781 Z M 74.8125 224.300781 "
     fill-opacity="1"
     fill-rule="nonzero"
     id="path4" />
  <g
     fill="#a33327"
     fill-opacity="1"
     id="g7">
    <g
       transform="translate(156.875545, 188.377019)"
       id="g6">
      <g
         id="g5">
        <path
           d="M 15.546875 -3.296875 L 8.265625 -3.296875 L 7.1875 0 L 0 0 L 8 -21.84375 L 15.890625 -21.84375 L 23.859375 0 L 16.640625 0 Z M 13.890625 -8.453125 L 11.90625 -14.53125 L 9.9375 -8.453125 Z M 13.890625 -8.453125 "
           id="path5" />
      </g>
    </g>
  </g>
  <g
     fill="#a33327"
     fill-opacity="1"
     id="g10">
    <g
       transform="translate(180.734337, 188.377019)"
       id="g9">
      <g
         id="g8">
        <path
           d="M 8.390625 -22.84375 L 8.390625 0 L 1.546875 0 L 1.546875 -22.84375 Z M 8.390625 -22.84375 "
           id="path7" />
      </g>
    </g>
  </g>
  <g
     fill="#a33327"
     fill-opacity="1"
     id="g13">
    <g
       transform="translate(190.672929, 188.377019)"
       id="g12">
      <g
         id="g11">
        <path
           d="M 8.390625 -22.84375 L 8.390625 0 L 1.546875 0 L 1.546875 -22.84375 Z M 8.390625 -22.84375 "
           id="path10" />
      </g>
    </g>
  </g>
  <g
     fill="#a33327"
     fill-opacity="1"
     id="g16">
    <g
       transform="translate(200.61152, 188.377019)"
       id="g15">
      <g
         id="g14" />
    </g>
  </g>
  <g
     fill="#a33327"
     fill-opacity="1"
     id="g19">
    <g
       transform="translate(205.858604, 188.377019)"
       id="g18">
      <g
         id="g17">
        <path
           d="M 10.09375 0.21875 C 7.476562 0.21875 5.320312 -0.390625 3.625 -1.609375 C 1.925781 -2.835938 1.003906 -4.632812 0.859375 -7 L 8.140625 -7 C 8.242188 -5.75 8.800781 -5.125 9.8125 -5.125 C 10.1875 -5.125 10.5 -5.207031 10.75 -5.375 C 11.007812 -5.550781 11.140625 -5.828125 11.140625 -6.203125 C 11.140625 -6.710938 10.859375 -7.128906 10.296875 -7.453125 C 9.742188 -7.773438 8.882812 -8.140625 7.71875 -8.546875 C 6.3125 -9.035156 5.148438 -9.515625 4.234375 -9.984375 C 3.328125 -10.460938 2.539062 -11.15625 1.875 -12.0625 C 1.21875 -12.96875 0.898438 -14.128906 0.921875 -15.546875 C 0.921875 -16.972656 1.285156 -18.179688 2.015625 -19.171875 C 2.742188 -20.171875 3.738281 -20.925781 5 -21.4375 C 6.269531 -21.957031 7.695312 -22.21875 9.28125 -22.21875 C 11.957031 -22.21875 14.082031 -21.597656 15.65625 -20.359375 C 17.226562 -19.128906 18.054688 -17.394531 18.140625 -15.15625 L 10.765625 -15.15625 C 10.742188 -15.769531 10.585938 -16.207031 10.296875 -16.46875 C 10.015625 -16.738281 9.671875 -16.875 9.265625 -16.875 C 8.972656 -16.875 8.734375 -16.773438 8.546875 -16.578125 C 8.359375 -16.390625 8.265625 -16.117188 8.265625 -15.765625 C 8.265625 -15.273438 8.535156 -14.867188 9.078125 -14.546875 C 9.628906 -14.234375 10.503906 -13.847656 11.703125 -13.390625 C 13.078125 -12.878906 14.210938 -12.382812 15.109375 -11.90625 C 16.003906 -11.4375 16.78125 -10.78125 17.4375 -9.9375 C 18.09375 -9.09375 18.421875 -8.035156 18.421875 -6.765625 C 18.421875 -5.421875 18.09375 -4.21875 17.4375 -3.15625 C 16.78125 -2.101562 15.820312 -1.273438 14.5625 -0.671875 C 13.3125 -0.078125 11.820312 0.21875 10.09375 0.21875 Z M 10.09375 0.21875 "
           id="path16" />
      </g>
    </g>
  </g>
  <g
     fill="#a33327"
     fill-opacity="1"
     id="g22">
    <g
       transform="translate(225.149347, 188.377019)"
       id="g21">
      <g
         id="g20">
        <path
           d="M 8.390625 -15.03125 C 8.828125 -15.832031 9.453125 -16.460938 10.265625 -16.921875 C 11.078125 -17.390625 12.046875 -17.625 13.171875 -17.625 C 14.535156 -17.625 15.757812 -17.265625 16.84375 -16.546875 C 17.9375 -15.835938 18.796875 -14.8125 19.421875 -13.46875 C 20.054688 -12.125 20.375 -10.535156 20.375 -8.703125 C 20.375 -6.867188 20.054688 -5.273438 19.421875 -3.921875 C 18.796875 -2.578125 17.9375 -1.550781 16.84375 -0.84375 C 15.757812 -0.132812 14.535156 0.21875 13.171875 0.21875 C 12.046875 0.21875 11.078125 -0.0078125 10.265625 -0.46875 C 9.453125 -0.9375 8.828125 -1.570312 8.390625 -2.375 L 8.390625 8.328125 L 1.546875 8.328125 L 1.546875 -17.40625 L 8.390625 -17.40625 Z M 13.421875 -8.703125 C 13.421875 -9.628906 13.179688 -10.347656 12.703125 -10.859375 C 12.234375 -11.378906 11.628906 -11.640625 10.890625 -11.640625 C 10.148438 -11.640625 9.539062 -11.378906 9.0625 -10.859375 C 8.59375 -10.347656 8.359375 -9.628906 8.359375 -8.703125 C 8.359375 -7.773438 8.59375 -7.050781 9.0625 -6.53125 C 9.539062 -6.019531 10.148438 -5.765625 10.890625 -5.765625 C 11.628906 -5.765625 12.234375 -6.019531 12.703125 -6.53125 C 13.179688 -7.050781 13.421875 -7.773438 13.421875 -8.703125 Z M 13.421875 -8.703125 "
           id="path19" />
      </g>
    </g>
  </g>
  <g
     fill="#a33327"
     fill-opacity="1"
     id="g25">
    <g
       transform="translate(246.137682, 188.377019)"
       id="g24">
      <g
         id="g23">
        <path
           d="M 5 -18.796875 C 3.800781 -18.796875 2.84375 -19.113281 2.125 -19.75 C 1.40625 -20.382812 1.046875 -21.1875 1.046875 -22.15625 C 1.046875 -23.144531 1.40625 -23.960938 2.125 -24.609375 C 2.84375 -25.253906 3.800781 -25.578125 5 -25.578125 C 6.175781 -25.578125 7.125 -25.253906 7.84375 -24.609375 C 8.5625 -23.960938 8.921875 -23.144531 8.921875 -22.15625 C 8.921875 -21.1875 8.5625 -20.382812 7.84375 -19.75 C 7.125 -19.113281 6.175781 -18.796875 5 -18.796875 Z M 8.390625 -17.40625 L 8.390625 0 L 1.546875 0 L 1.546875 -17.40625 Z M 8.390625 -17.40625 "
           id="path22" />
      </g>
    </g>
  </g>
  <g
     fill="#a33327"
     fill-opacity="1"
     id="g28">
    <g
       transform="translate(256.076273, 188.377019)"
       id="g27">
      <g
         id="g26">
        <path
           d="M 0.625 -8.703125 C 0.625 -10.515625 1 -12.09375 1.75 -13.4375 C 2.5 -14.78125 3.546875 -15.8125 4.890625 -16.53125 C 6.234375 -17.257812 7.769531 -17.625 9.5 -17.625 C 11.769531 -17.625 13.679688 -16.984375 15.234375 -15.703125 C 16.785156 -14.429688 17.765625 -12.664062 18.171875 -10.40625 L 10.921875 -10.40625 C 10.648438 -11.300781 10.125 -11.75 9.34375 -11.75 C 8.789062 -11.75 8.351562 -11.492188 8.03125 -10.984375 C 7.71875 -10.472656 7.5625 -9.710938 7.5625 -8.703125 C 7.5625 -7.691406 7.71875 -6.925781 8.03125 -6.40625 C 8.351562 -5.894531 8.789062 -5.640625 9.34375 -5.640625 C 10.125 -5.640625 10.648438 -6.09375 10.921875 -7 L 18.171875 -7 C 17.765625 -4.738281 16.785156 -2.96875 15.234375 -1.6875 C 13.679688 -0.414062 11.769531 0.21875 9.5 0.21875 C 7.769531 0.21875 6.234375 -0.140625 4.890625 -0.859375 C 3.546875 -1.578125 2.5 -2.609375 1.75 -3.953125 C 1 -5.304688 0.625 -6.890625 0.625 -8.703125 Z M 0.625 -8.703125 "
           id="path25" />
      </g>
    </g>
  </g>
  <g
     fill="#a33327"
     fill-opacity="1"
     id="g31">
    <g
       transform="translate(274.873185, 188.377019)"
       id="g30">
      <g
         id="g29">
        <path
           d="M 18.390625 -8.859375 C 18.390625 -8.378906 18.359375 -7.925781 18.296875 -7.5 L 7.28125 -7.5 C 7.382812 -6 8.015625 -5.25 9.171875 -5.25 C 9.910156 -5.25 10.441406 -5.585938 10.765625 -6.265625 L 18.015625 -6.265625 C 17.773438 -5.023438 17.257812 -3.914062 16.46875 -2.9375 C 15.675781 -1.96875 14.675781 -1.195312 13.46875 -0.625 C 12.269531 -0.0625 10.945312 0.21875 9.5 0.21875 C 7.769531 0.21875 6.234375 -0.140625 4.890625 -0.859375 C 3.546875 -1.578125 2.5 -2.609375 1.75 -3.953125 C 1 -5.304688 0.625 -6.890625 0.625 -8.703125 C 0.625 -10.515625 1 -12.09375 1.75 -13.4375 C 2.5 -14.78125 3.546875 -15.8125 4.890625 -16.53125 C 6.234375 -17.257812 7.769531 -17.625 9.5 -17.625 C 11.226562 -17.625 12.765625 -17.265625 14.109375 -16.546875 C 15.460938 -15.835938 16.515625 -14.828125 17.265625 -13.515625 C 18.015625 -12.203125 18.390625 -10.648438 18.390625 -8.859375 Z M 11.453125 -10.5 C 11.453125 -11.070312 11.265625 -11.503906 10.890625 -11.796875 C 10.523438 -12.097656 10.0625 -12.25 9.5 -12.25 C 8.289062 -12.25 7.582031 -11.664062 7.375 -10.5 Z M 11.453125 -10.5 "
           id="path28" />
      </g>
    </g>
  </g>
  <g
     fill="#a33327"
     fill-opacity="1"
     id="g34">
    <g
       transform="translate(117.223963, 211.249366)"
       id="g33">
      <g
         id="g32">
        <path
           d="M 2.328125 -9.78125 L 2.328125 -3.59375 C 2.328125 -2.71875 2.539062 -2.070312 2.96875 -1.65625 C 3.394531 -1.238281 3.988281 -1.03125 4.75 -1.03125 C 5.488281 -1.03125 6.070312 -1.238281 6.5 -1.65625 C 6.925781 -2.070312 7.140625 -2.71875 7.140625 -3.59375 L 7.140625 -9.78125 L 8.421875 -9.78125 L 8.421875 -3.609375 C 8.421875 -2.796875 8.253906 -2.109375 7.921875 -1.546875 C 7.597656 -0.992188 7.15625 -0.582031 6.59375 -0.3125 C 6.039062 -0.0390625 5.421875 0.09375 4.734375 0.09375 C 4.035156 0.09375 3.40625 -0.0390625 2.84375 -0.3125 C 2.289062 -0.582031 1.851562 -0.992188 1.53125 -1.546875 C 1.207031 -2.109375 1.046875 -2.796875 1.046875 -3.609375 L 1.046875 -9.78125 Z M 2.328125 -9.78125 "
           id="path31" />
      </g>
    </g>
  </g>
  <g
     fill="#a33327"
     fill-opacity="1"
     id="g37">
    <g
       transform="translate(128.923049, 211.249366)"
       id="g36">
      <g
         id="g35">
        <path
           d="M 4.828125 -7.828125 C 5.765625 -7.828125 6.519531 -7.539062 7.09375 -6.96875 C 7.675781 -6.40625 7.96875 -5.59375 7.96875 -4.53125 L 7.96875 0 L 6.703125 0 L 6.703125 -4.34375 C 6.703125 -5.113281 6.507812 -5.703125 6.125 -6.109375 C 5.75 -6.515625 5.226562 -6.71875 4.5625 -6.71875 C 3.882812 -6.71875 3.347656 -6.503906 2.953125 -6.078125 C 2.554688 -5.660156 2.359375 -5.050781 2.359375 -4.25 L 2.359375 0 L 1.078125 0 L 1.078125 -7.6875 L 2.359375 -7.6875 L 2.359375 -6.59375 C 2.609375 -6.988281 2.953125 -7.289062 3.390625 -7.5 C 3.828125 -7.71875 4.304688 -7.828125 4.828125 -7.828125 Z M 4.828125 -7.828125 "
           id="path34" />
      </g>
    </g>
  </g>
  <g
     fill="#a33327"
     fill-opacity="1"
     id="g40">
    <g
       transform="translate(140.131211, 211.249366)"
       id="g39">
      <g
         id="g38">
        <path
           d="M 2.359375 -10.390625 L 2.359375 0 L 1.078125 0 L 1.078125 -10.390625 Z M 2.359375 -10.390625 "
           id="path37" />
      </g>
    </g>
  </g>
  <g
     fill="#a33327"
     fill-opacity="1"
     id="g43">
    <g
       transform="translate(145.812888, 211.249366)"
       id="g42">
      <g
         id="g41">
        <path
           d="M 8.09375 -4.140625 C 8.09375 -3.898438 8.078125 -3.644531 8.046875 -3.375 L 1.90625 -3.375 C 1.957031 -2.613281 2.21875 -2.019531 2.6875 -1.59375 C 3.15625 -1.164062 3.726562 -0.953125 4.40625 -0.953125 C 4.957031 -0.953125 5.414062 -1.078125 5.78125 -1.328125 C 6.15625 -1.585938 6.414062 -1.9375 6.5625 -2.375 L 7.9375 -2.375 C 7.738281 -1.632812 7.328125 -1.03125 6.703125 -0.5625 C 6.085938 -0.101562 5.320312 0.125 4.40625 0.125 C 3.675781 0.125 3.019531 -0.0351562 2.4375 -0.359375 C 1.863281 -0.691406 1.414062 -1.160156 1.09375 -1.765625 C 0.769531 -2.367188 0.609375 -3.066406 0.609375 -3.859375 C 0.609375 -4.648438 0.765625 -5.34375 1.078125 -5.9375 C 1.398438 -6.539062 1.847656 -7.003906 2.421875 -7.328125 C 2.992188 -7.648438 3.65625 -7.8125 4.40625 -7.8125 C 5.132812 -7.8125 5.78125 -7.648438 6.34375 -7.328125 C 6.90625 -7.015625 7.335938 -6.578125 7.640625 -6.015625 C 7.941406 -5.460938 8.09375 -4.835938 8.09375 -4.140625 Z M 6.78125 -4.40625 C 6.78125 -4.894531 6.671875 -5.3125 6.453125 -5.65625 C 6.234375 -6.007812 5.9375 -6.273438 5.5625 -6.453125 C 5.195312 -6.640625 4.789062 -6.734375 4.34375 -6.734375 C 3.695312 -6.734375 3.144531 -6.523438 2.6875 -6.109375 C 2.238281 -5.703125 1.984375 -5.132812 1.921875 -4.40625 Z M 6.78125 -4.40625 "
           id="path40" />
      </g>
    </g>
  </g>
  <g
     fill="#a33327"
     fill-opacity="1"
     id="g46">
    <g
       transform="translate(156.740523, 211.249366)"
       id="g45">
      <g
         id="g44">
        <path
           d="M 0.609375 -3.875 C 0.609375 -4.65625 0.765625 -5.34375 1.078125 -5.9375 C 1.398438 -6.53125 1.835938 -6.988281 2.390625 -7.3125 C 2.953125 -7.644531 3.570312 -7.8125 4.25 -7.8125 C 4.925781 -7.8125 5.507812 -7.664062 6 -7.375 C 6.5 -7.09375 6.867188 -6.726562 7.109375 -6.28125 L 7.109375 -7.6875 L 8.40625 -7.6875 L 8.40625 0 L 7.109375 0 L 7.109375 -1.4375 C 6.859375 -0.976562 6.484375 -0.601562 5.984375 -0.3125 C 5.484375 -0.0195312 4.898438 0.125 4.234375 0.125 C 3.554688 0.125 2.941406 -0.0390625 2.390625 -0.375 C 1.835938 -0.71875 1.398438 -1.191406 1.078125 -1.796875 C 0.765625 -2.398438 0.609375 -3.09375 0.609375 -3.875 Z M 7.109375 -3.859375 C 7.109375 -4.441406 6.988281 -4.945312 6.75 -5.375 C 6.519531 -5.800781 6.207031 -6.128906 5.8125 -6.359375 C 5.414062 -6.585938 4.976562 -6.703125 4.5 -6.703125 C 4.019531 -6.703125 3.582031 -6.585938 3.1875 -6.359375 C 2.800781 -6.140625 2.488281 -5.816406 2.25 -5.390625 C 2.019531 -4.960938 1.90625 -4.457031 1.90625 -3.875 C 1.90625 -3.28125 2.019531 -2.765625 2.25 -2.328125 C 2.488281 -1.898438 2.800781 -1.570312 3.1875 -1.34375 C 3.582031 -1.113281 4.019531 -1 4.5 -1 C 4.976562 -1 5.414062 -1.113281 5.8125 -1.34375 C 6.207031 -1.570312 6.519531 -1.898438 6.75 -2.328125 C 6.988281 -2.765625 7.109375 -3.273438 7.109375 -3.859375 Z M 7.109375 -3.859375 "
           id="path43" />
      </g>
    </g>
  </g>
  <g
     fill="#a33327"
     fill-opacity="1"
     id="g49">
    <g
       transform="translate(168.453643, 211.249366)"
       id="g48">
      <g
         id="g47">
        <path
           d="M 3.796875 0.125 C 3.210938 0.125 2.6875 0.0234375 2.21875 -0.171875 C 1.75 -0.378906 1.378906 -0.660156 1.109375 -1.015625 C 0.835938 -1.378906 0.6875 -1.796875 0.65625 -2.265625 L 1.984375 -2.265625 C 2.015625 -1.878906 2.191406 -1.5625 2.515625 -1.3125 C 2.835938 -1.070312 3.257812 -0.953125 3.78125 -0.953125 C 4.269531 -0.953125 4.65625 -1.054688 4.9375 -1.265625 C 5.21875 -1.484375 5.359375 -1.757812 5.359375 -2.09375 C 5.359375 -2.425781 5.207031 -2.675781 4.90625 -2.84375 C 4.613281 -3.007812 4.148438 -3.171875 3.515625 -3.328125 C 2.953125 -3.472656 2.488281 -3.625 2.125 -3.78125 C 1.757812 -3.9375 1.445312 -4.164062 1.1875 -4.46875 C 0.9375 -4.769531 0.8125 -5.171875 0.8125 -5.671875 C 0.8125 -6.066406 0.925781 -6.425781 1.15625 -6.75 C 1.394531 -7.070312 1.726562 -7.328125 2.15625 -7.515625 C 2.59375 -7.710938 3.085938 -7.8125 3.640625 -7.8125 C 4.484375 -7.8125 5.164062 -7.597656 5.6875 -7.171875 C 6.21875 -6.742188 6.5 -6.15625 6.53125 -5.40625 L 5.265625 -5.40625 C 5.234375 -5.800781 5.066406 -6.117188 4.765625 -6.359375 C 4.472656 -6.609375 4.082031 -6.734375 3.59375 -6.734375 C 3.132812 -6.734375 2.769531 -6.632812 2.5 -6.4375 C 2.226562 -6.238281 2.09375 -5.984375 2.09375 -5.671875 C 2.09375 -5.421875 2.171875 -5.210938 2.328125 -5.046875 C 2.492188 -4.878906 2.703125 -4.742188 2.953125 -4.640625 C 3.203125 -4.546875 3.546875 -4.441406 3.984375 -4.328125 C 4.535156 -4.171875 4.984375 -4.019531 5.328125 -3.875 C 5.671875 -3.726562 5.96875 -3.507812 6.21875 -3.21875 C 6.46875 -2.9375 6.597656 -2.5625 6.609375 -2.09375 C 6.609375 -1.664062 6.488281 -1.285156 6.25 -0.953125 C 6.019531 -0.617188 5.691406 -0.351562 5.265625 -0.15625 C 4.835938 0.03125 4.347656 0.125 3.796875 0.125 Z M 3.796875 0.125 "
           id="path46" />
      </g>
    </g>
  </g>
  <g
     fill="#a33327"
     fill-opacity="1"
     id="g52">
    <g
       transform="translate(178.00667, 211.249366)"
       id="g51">
      <g
         id="g50">
        <path
           d="M 4.890625 -7.828125 C 5.472656 -7.828125 6 -7.703125 6.46875 -7.453125 C 6.9375 -7.203125 7.300781 -6.828125 7.5625 -6.328125 C 7.832031 -5.835938 7.96875 -5.238281 7.96875 -4.53125 L 7.96875 0 L 6.703125 0 L 6.703125 -4.34375 C 6.703125 -5.113281 6.507812 -5.703125 6.125 -6.109375 C 5.75 -6.515625 5.226562 -6.71875 4.5625 -6.71875 C 3.882812 -6.71875 3.347656 -6.503906 2.953125 -6.078125 C 2.554688 -5.660156 2.359375 -5.050781 2.359375 -4.25 L 2.359375 0 L 1.078125 0 L 1.078125 -10.390625 L 2.359375 -10.390625 L 2.359375 -6.59375 C 2.609375 -6.988281 2.953125 -7.289062 3.390625 -7.5 C 3.835938 -7.71875 4.335938 -7.828125 4.890625 -7.828125 Z M 4.890625 -7.828125 "
           id="path49" />
      </g>
    </g>
  </g>
  <g
     fill="#a33327"
     fill-opacity="1"
     id="g55">
    <g
       transform="translate(189.214835, 211.249366)"
       id="g54">
      <g
         id="g53" />
    </g>
  </g>
  <g
     fill="#a33327"
     fill-opacity="1"
     id="g58">
    <g
       transform="translate(195.191071, 211.249366)"
       id="g57">
      <g
         id="g56">
        <path
           d="M 2.640625 -6.640625 L 2.640625 -2.109375 C 2.640625 -1.734375 2.71875 -1.46875 2.875 -1.3125 C 3.03125 -1.15625 3.304688 -1.078125 3.703125 -1.078125 L 4.640625 -1.078125 L 4.640625 0 L 3.5 0 C 2.78125 0 2.242188 -0.160156 1.890625 -0.484375 C 1.535156 -0.816406 1.359375 -1.359375 1.359375 -2.109375 L 1.359375 -6.640625 L 0.359375 -6.640625 L 0.359375 -7.6875 L 1.359375 -7.6875 L 1.359375 -9.625 L 2.640625 -9.625 L 2.640625 -7.6875 L 4.640625 -7.6875 L 4.640625 -6.640625 Z M 2.640625 -6.640625 "
           id="path55" />
      </g>
    </g>
  </g>
  <g
     fill="#a33327"
     fill-opacity="1"
     id="g61">
    <g
       transform="translate(202.527896, 211.249366)"
       id="g60">
      <g
         id="g59">
        <path
           d="M 4.890625 -7.828125 C 5.472656 -7.828125 6 -7.703125 6.46875 -7.453125 C 6.9375 -7.203125 7.300781 -6.828125 7.5625 -6.328125 C 7.832031 -5.835938 7.96875 -5.238281 7.96875 -4.53125 L 7.96875 0 L 6.703125 0 L 6.703125 -4.34375 C 6.703125 -5.113281 6.507812 -5.703125 6.125 -6.109375 C 5.75 -6.515625 5.226562 -6.71875 4.5625 -6.71875 C 3.882812 -6.71875 3.347656 -6.503906 2.953125 -6.078125 C 2.554688 -5.660156 2.359375 -5.050781 2.359375 -4.25 L 2.359375 0 L 1.078125 0 L 1.078125 -10.390625 L 2.359375 -10.390625 L 2.359375 -6.59375 C 2.609375 -6.988281 2.953125 -7.289062 3.390625 -7.5 C 3.835938 -7.71875 4.335938 -7.828125 4.890625 -7.828125 Z M 4.890625 -7.828125 "
           id="path58" />
      </g>
    </g>
  </g>
  <g
     fill="#a33327"
     fill-opacity="1"
     id="g64">
    <g
       transform="translate(213.736057, 211.249366)"
       id="g63">
      <g
         id="g62">
        <path
           d="M 8.09375 -4.140625 C 8.09375 -3.898438 8.078125 -3.644531 8.046875 -3.375 L 1.90625 -3.375 C 1.957031 -2.613281 2.21875 -2.019531 2.6875 -1.59375 C 3.15625 -1.164062 3.726562 -0.953125 4.40625 -0.953125 C 4.957031 -0.953125 5.414062 -1.078125 5.78125 -1.328125 C 6.15625 -1.585938 6.414062 -1.9375 6.5625 -2.375 L 7.9375 -2.375 C 7.738281 -1.632812 7.328125 -1.03125 6.703125 -0.5625 C 6.085938 -0.101562 5.320312 0.125 4.40625 0.125 C 3.675781 0.125 3.019531 -0.0351562 2.4375 -0.359375 C 1.863281 -0.691406 1.414062 -1.160156 1.09375 -1.765625 C 0.769531 -2.367188 0.609375 -3.066406 0.609375 -3.859375 C 0.609375 -4.648438 0.765625 -5.34375 1.078125 -5.9375 C 1.398438 -6.539062 1.847656 -7.003906 2.421875 -7.328125 C 2.992188 -7.648438 3.65625 -7.8125 4.40625 -7.8125 C 5.132812 -7.8125 5.78125 -7.648438 6.34375 -7.328125 C 6.90625 -7.015625 7.335938 -6.578125 7.640625 -6.015625 C 7.941406 -5.460938 8.09375 -4.835938 8.09375 -4.140625 Z M 6.78125 -4.40625 C 6.78125 -4.894531 6.671875 -5.3125 6.453125 -5.65625 C 6.234375 -6.007812 5.9375 -6.273438 5.5625 -6.453125 C 5.195312 -6.640625 4.789062 -6.734375 4.34375 -6.734375 C 3.695312 -6.734375 3.144531 -6.523438 2.6875 -6.109375 C 2.238281 -5.703125 1.984375 -5.132812 1.921875 -4.40625 Z M 6.78125 -4.40625 "
           id="path61" />
      </g>
    </g>
  </g>
  <g
     fill="#a33327"
     fill-opacity="1"
     id="g67">
    <g
       transform="translate(224.663691, 211.249366)"
       id="g66">
      <g
         id="g65" />
    </g>
  </g>
  <g
     fill="#a33327"
     fill-opacity="1"
     id="g70">
    <g
       transform="translate(230.639927, 211.249366)"
       id="g69">
      <g
         id="g68">
        <path
           d="M 0.609375 -4.890625 C 0.609375 -5.847656 0.820312 -6.707031 1.25 -7.46875 C 1.675781 -8.226562 2.257812 -8.820312 3 -9.25 C 3.75 -9.6875 4.578125 -9.90625 5.484375 -9.90625 C 6.546875 -9.90625 7.472656 -9.644531 8.265625 -9.125 C 9.066406 -8.613281 9.648438 -7.890625 10.015625 -6.953125 L 8.484375 -6.953125 C 8.210938 -7.535156 7.820312 -7.984375 7.3125 -8.296875 C 6.800781 -8.617188 6.191406 -8.78125 5.484375 -8.78125 C 4.804688 -8.78125 4.191406 -8.617188 3.640625 -8.296875 C 3.097656 -7.984375 2.671875 -7.535156 2.359375 -6.953125 C 2.054688 -6.367188 1.90625 -5.679688 1.90625 -4.890625 C 1.90625 -4.117188 2.054688 -3.441406 2.359375 -2.859375 C 2.671875 -2.273438 3.097656 -1.820312 3.640625 -1.5 C 4.191406 -1.1875 4.804688 -1.03125 5.484375 -1.03125 C 6.191406 -1.03125 6.800781 -1.1875 7.3125 -1.5 C 7.820312 -1.8125 8.210938 -2.257812 8.484375 -2.84375 L 10.015625 -2.84375 C 9.648438 -1.90625 9.066406 -1.179688 8.265625 -0.671875 C 7.472656 -0.171875 6.546875 0.078125 5.484375 0.078125 C 4.578125 0.078125 3.75 -0.128906 3 -0.546875 C 2.257812 -0.972656 1.675781 -1.566406 1.25 -2.328125 C 0.820312 -3.085938 0.609375 -3.941406 0.609375 -4.890625 Z M 0.609375 -4.890625 "
           id="path67" />
      </g>
    </g>
  </g>
  <g
     fill="#a33327"
     fill-opacity="1"
     id="g73">
    <g
       transform="translate(243.699601, 211.249366)"
       id="g72">
      <g
         id="g71">
        <path
           d="M 4.890625 -7.828125 C 5.472656 -7.828125 6 -7.703125 6.46875 -7.453125 C 6.9375 -7.203125 7.300781 -6.828125 7.5625 -6.328125 C 7.832031 -5.835938 7.96875 -5.238281 7.96875 -4.53125 L 7.96875 0 L 6.703125 0 L 6.703125 -4.34375 C 6.703125 -5.113281 6.507812 -5.703125 6.125 -6.109375 C 5.75 -6.515625 5.226562 -6.71875 4.5625 -6.71875 C 3.882812 -6.71875 3.347656 -6.503906 2.953125 -6.078125 C 2.554688 -5.660156 2.359375 -5.050781 2.359375 -4.25 L 2.359375 0 L 1.078125 0 L 1.078125 -10.390625 L 2.359375 -10.390625 L 2.359375 -6.59375 C 2.609375 -6.988281 2.953125 -7.289062 3.390625 -7.5 C 3.835938 -7.71875 4.335938 -7.828125 4.890625 -7.828125 Z M 4.890625 -7.828125 "
           id="path70" />
      </g>
    </g>
  </g>
  <g
     fill="#a33327"
     fill-opacity="1"
     id="g76">
    <g
       transform="translate(254.90777, 211.249366)"
       id="g75">
      <g
         id="g74">
        <path
           d="M 8.09375 -4.140625 C 8.09375 -3.898438 8.078125 -3.644531 8.046875 -3.375 L 1.90625 -3.375 C 1.957031 -2.613281 2.21875 -2.019531 2.6875 -1.59375 C 3.15625 -1.164062 3.726562 -0.953125 4.40625 -0.953125 C 4.957031 -0.953125 5.414062 -1.078125 5.78125 -1.328125 C 6.15625 -1.585938 6.414062 -1.9375 6.5625 -2.375 L 7.9375 -2.375 C 7.738281 -1.632812 7.328125 -1.03125 6.703125 -0.5625 C 6.085938 -0.101562 5.320312 0.125 4.40625 0.125 C 3.675781 0.125 3.019531 -0.0351562 2.4375 -0.359375 C 1.863281 -0.691406 1.414062 -1.160156 1.09375 -1.765625 C 0.769531 -2.367188 0.609375 -3.066406 0.609375 -3.859375 C 0.609375 -4.648438 0.765625 -5.34375 1.078125 -5.9375 C 1.398438 -6.539062 1.847656 -7.003906 2.421875 -7.328125 C 2.992188 -7.648438 3.65625 -7.8125 4.40625 -7.8125 C 5.132812 -7.8125 5.78125 -7.648438 6.34375 -7.328125 C 6.90625 -7.015625 7.335938 -6.578125 7.640625 -6.015625 C 7.941406 -5.460938 8.09375 -4.835938 8.09375 -4.140625 Z M 6.78125 -4.40625 C 6.78125 -4.894531 6.671875 -5.3125 6.453125 -5.65625 C 6.234375 -6.007812 5.9375 -6.273438 5.5625 -6.453125 C 5.195312 -6.640625 4.789062 -6.734375 4.34375 -6.734375 C 3.695312 -6.734375 3.144531 -6.523438 2.6875 -6.109375 C 2.238281 -5.703125 1.984375 -5.132812 1.921875 -4.40625 Z M 6.78125 -4.40625 "
           id="path73" />
      </g>
    </g>
  </g>
  <g
     fill="#a33327"
     fill-opacity="1"
     id="g79">
    <g
       transform="translate(265.835405, 211.249366)"
       id="g78">
      <g
         id="g77">
        <path
           d="M 4.203125 -6.640625 L 2.59375 -6.640625 L 2.59375 0 L 1.3125 0 L 1.3125 -6.640625 L 0.328125 -6.640625 L 0.328125 -7.6875 L 1.3125 -7.6875 L 1.3125 -8.234375 C 1.3125 -9.097656 1.535156 -9.726562 1.984375 -10.125 C 2.429688 -10.519531 3.144531 -10.71875 4.125 -10.71875 L 4.125 -9.65625 C 3.5625 -9.65625 3.164062 -9.546875 2.9375 -9.328125 C 2.707031 -9.109375 2.59375 -8.742188 2.59375 -8.234375 L 2.59375 -7.6875 L 4.203125 -7.6875 Z M 4.203125 -6.640625 "
           id="path76" />
      </g>
    </g>
  </g>
  <g
     fill="#a33327"
     fill-opacity="1"
     id="g82">
    <g
       transform="translate(272.681289, 211.249366)"
       id="g81">
      <g
         id="g80" />
    </g>
  </g>
  <g
     fill="#a33327"
     fill-opacity="1"
     id="g85">
    <g
       transform="translate(278.657525, 211.249366)"
       id="g84">
      <g
         id="g83">
        <path
           d="M 1.734375 -8.9375 C 1.492188 -8.9375 1.289062 -9.019531 1.125 -9.1875 C 0.957031 -9.351562 0.875 -9.5625 0.875 -9.8125 C 0.875 -10.050781 0.957031 -10.253906 1.125 -10.421875 C 1.289062 -10.585938 1.492188 -10.671875 1.734375 -10.671875 C 1.972656 -10.671875 2.171875 -10.585938 2.328125 -10.421875 C 2.492188 -10.253906 2.578125 -10.050781 2.578125 -9.8125 C 2.578125 -9.5625 2.492188 -9.351562 2.328125 -9.1875 C 2.171875 -9.019531 1.972656 -8.9375 1.734375 -8.9375 Z M 2.359375 -7.6875 L 2.359375 0 L 1.078125 0 L 1.078125 -7.6875 Z M 2.359375 -7.6875 "
           id="path82" />
      </g>
    </g>
  </g>
  <g
     fill="#a33327"
     fill-opacity="1"
     id="g88">
    <g
       transform="translate(284.3392, 211.249366)"
       id="g87">
      <g
         id="g86">
        <path
           d="M 4.828125 -7.828125 C 5.765625 -7.828125 6.519531 -7.539062 7.09375 -6.96875 C 7.675781 -6.40625 7.96875 -5.59375 7.96875 -4.53125 L 7.96875 0 L 6.703125 0 L 6.703125 -4.34375 C 6.703125 -5.113281 6.507812 -5.703125 6.125 -6.109375 C 5.75 -6.515625 5.226562 -6.71875 4.5625 -6.71875 C 3.882812 -6.71875 3.347656 -6.503906 2.953125 -6.078125 C 2.554688 -5.660156 2.359375 -5.050781 2.359375 -4.25 L 2.359375 0 L 1.078125 0 L 1.078125 -7.6875 L 2.359375 -7.6875 L 2.359375 -6.59375 C 2.609375 -6.988281 2.953125 -7.289062 3.390625 -7.5 C 3.828125 -7.71875 4.304688 -7.828125 4.828125 -7.828125 Z M 4.828125 -7.828125 "
           id="path85" />
      </g>
    </g>
  </g>
  <g
     fill="#a33327"
     fill-opacity="1"
     id="g91">
    <g
       transform="translate(295.547361, 211.249366)"
       id="g90">
      <g
         id="g89" />
    </g>
  </g>
  <g
     fill="#a33327"
     fill-opacity="1"
     id="g94">
    <g
       transform="translate(301.523597, 211.249366)"
       id="g93">
      <g
         id="g92">
        <path
           d="M 7.921875 -9.78125 L 4.75 -3.6875 L 4.75 0 L 3.46875 0 L 3.46875 -3.6875 L 0.265625 -9.78125 L 1.6875 -9.78125 L 4.09375 -4.828125 L 6.515625 -9.78125 Z M 7.921875 -9.78125 "
           id="path91" />
      </g>
    </g>
  </g>
  <g
     fill="#a33327"
     fill-opacity="1"
     id="g97">
    <g
       transform="translate(311.946272, 211.249366)"
       id="g96">
      <g
         id="g95">
        <path
           d="M 4.4375 0.125 C 3.71875 0.125 3.0625 -0.0351562 2.46875 -0.359375 C 1.882812 -0.691406 1.425781 -1.160156 1.09375 -1.765625 C 0.769531 -2.367188 0.609375 -3.066406 0.609375 -3.859375 C 0.609375 -4.640625 0.773438 -5.332031 1.109375 -5.9375 C 1.453125 -6.539062 1.914062 -7.003906 2.5 -7.328125 C 3.09375 -7.648438 3.753906 -7.8125 4.484375 -7.8125 C 5.210938 -7.8125 5.875 -7.648438 6.46875 -7.328125 C 7.0625 -7.003906 7.523438 -6.539062 7.859375 -5.9375 C 8.203125 -5.34375 8.375 -4.648438 8.375 -3.859375 C 8.375 -3.066406 8.195312 -2.367188 7.84375 -1.765625 C 7.5 -1.160156 7.023438 -0.691406 6.421875 -0.359375 C 5.828125 -0.0351562 5.164062 0.125 4.4375 0.125 Z M 4.4375 -1 C 4.894531 -1 5.320312 -1.101562 5.71875 -1.3125 C 6.125 -1.53125 6.453125 -1.851562 6.703125 -2.28125 C 6.953125 -2.71875 7.078125 -3.242188 7.078125 -3.859375 C 7.078125 -4.472656 6.953125 -4.992188 6.703125 -5.421875 C 6.460938 -5.859375 6.144531 -6.179688 5.75 -6.390625 C 5.351562 -6.597656 4.925781 -6.703125 4.46875 -6.703125 C 4.007812 -6.703125 3.582031 -6.597656 3.1875 -6.390625 C 2.800781 -6.179688 2.488281 -5.859375 2.25 -5.421875 C 2.019531 -4.992188 1.90625 -4.472656 1.90625 -3.859375 C 1.90625 -3.234375 2.019531 -2.703125 2.25 -2.265625 C 2.476562 -1.835938 2.785156 -1.519531 3.171875 -1.3125 C 3.554688 -1.101562 3.976562 -1 4.4375 -1 Z M 4.4375 -1 "
           id="path94" />
      </g>
    </g>
  </g>
  <g
     fill="#a33327"
     fill-opacity="1"
     id="g100">
    <g
       transform="translate(323.154433, 211.249366)"
       id="g99">
      <g
         id="g98">
        <path
           d="M 7.90625 -7.6875 L 7.90625 0 L 6.625 0 L 6.625 -1.140625 C 6.382812 -0.742188 6.046875 -0.4375 5.609375 -0.21875 C 5.171875 0 4.691406 0.109375 4.171875 0.109375 C 3.566406 0.109375 3.023438 -0.0078125 2.546875 -0.25 C 2.078125 -0.5 1.703125 -0.875 1.421875 -1.375 C 1.148438 -1.875 1.015625 -2.476562 1.015625 -3.1875 L 1.015625 -7.6875 L 2.265625 -7.6875 L 2.265625 -3.359375 C 2.265625 -2.597656 2.457031 -2.015625 2.84375 -1.609375 C 3.226562 -1.203125 3.753906 -1 4.421875 -1 C 5.097656 -1 5.632812 -1.207031 6.03125 -1.625 C 6.425781 -2.050781 6.625 -2.664062 6.625 -3.46875 L 6.625 -7.6875 Z M 7.90625 -7.6875 "
           id="path97" />
      </g>
    </g>
  </g>
  <path
     stroke-linecap="butt"
     transform="matrix(0.750851, 0, 0, 0.75, 101.87791, 194.162858)"
     fill="none"
     stroke-linejoin="miter"
     d="M 0.00132708 1.501607 L 330.631564 1.501607 "
     stroke="#a33327"
     stroke-width="3"
     stroke-opacity="1"
     stroke-miterlimit="4"
     id="path100" />
</svg>
