<?xml version="1.0" encoding="UTF-8" standalone="no"?>
<svg
   width="476.23352"
   zoomAndPan="magnify"
   viewBox="0 0 357.17514 102.14608"
   height="136.19478"
   preserveAspectRatio="xMidYMid"
   version="1.0"
   id="svg100"
   sodipodi:docname="asHoriLogo.svg"
   inkscape:version="1.3 (0e150ed6c4, 2023-07-21)"
   inkscape:export-filename="asHoriLogo.svg"
   inkscape:export-xdpi="96"
   inkscape:export-ydpi="96"
   xmlns:inkscape="http://www.inkscape.org/namespaces/inkscape"
   xmlns:sodipodi="http://sodipodi.sourceforge.net/DTD/sodipodi-0.dtd"
   xmlns="http://www.w3.org/2000/svg"
   xmlns:svg="http://www.w3.org/2000/svg">
  <sodipodi:namedview
     id="namedview100"
     pagecolor="#ffffff"
     bordercolor="#000000"
     borderopacity="0.25"
     inkscape:showpageshadow="2"
     inkscape:pageopacity="0.0"
     inkscape:pagecheckerboard="0"
     inkscape:deskcolor="#d1d1d1"
     inkscape:zoom="1.412"
     inkscape:cx="250"
     inkscape:cy="249.64589"
     inkscape:window-width="1920"
     inkscape:window-height="991"
     inkscape:window-x="-9"
     inkscape:window-y="-9"
     inkscape:window-maximized="1"
     inkscape:current-layer="svg100" />
  <defs
     id="defs1">
    <clipPath
       id="eca93cc14c">
      <path
         d="M 11.25,145.25 H 64 V 216 H 11.25 Z m 0,0"
         clip-rule="nonzero"
         id="path1" />
    </clipPath>
    <filter
       style="color-interpolation-filters:sRGB"
       inkscape:label="Drop Shadow"
       id="filter4"
       x="-0.021246764"
       y="-0.084959672"
       width="1.0540022"
       height="1.2053192">
      <feFlood
         result="flood"
         in="SourceGraphic"
         flood-opacity="0.498039"
         flood-color="rgb(0,0,0)"
         id="feFlood3" />
      <feGaussianBlur
         result="blur"
         in="SourceGraphic"
         stdDeviation="3.000000"
         id="feGaussianBlur3" />
      <feOffset
         result="offset"
         in="blur"
         dx="3.900000"
         dy="3.000000"
         id="feOffset3" />
      <feComposite
         result="comp1"
         operator="in"
         in="flood"
         in2="offset"
         id="feComposite3" />
      <feComposite
         result="comp2"
         operator="over"
         in="SourceGraphic"
         in2="comp1"
         id="feComposite4" />
    </filter>
  </defs>
  <g
     id="g3"
     style="filter:url(#filter4)"
     transform="translate(-4.0578117,-138.05)">
    <g
       clip-path="url(#eca93cc14c)"
       id="g2">
      <path
         fill="#ad8174"
         d="m 63.050781,146.31641 c -0.773437,5.79687 -2.191406,11.57812 -4.679687,16.88671 -2.878906,6.16797 -7.132813,11.15625 -12.613282,15.16407 -5.332031,3.89453 -11.191406,7.08203 -16.019531,11.6289 -4.8125,4.51563 -7.933593,10.08985 -8.40625,16.73828 -0.21875,2.9961 0.03906,5.95704 0.472657,8.89063 -5.414063,-6.13672 -9.085938,-13.85156 -10.21875,-22.36719 l 8.753906,-8.73047 c 0.191406,-0.19922 0.417968,-0.33984 0.671875,-0.43359 2.714843,-0.97266 6.667969,-2.14063 11.085937,-5.20703 2.59375,-1.82031 5.453125,-4.07422 8.527344,-6.89453 6.019531,-5.53516 8.839844,-10.32422 10.066406,-14.03125 1.367188,-4.16797 0.746094,-6.97657 0.433594,-7.97657 -0.05859,-0.16015 -0.265625,-0.27343 -0.367188,-0.17968 L 46.730469,153.5 25.292969,173.17187 11.257812,185.57422 C 12.332031,163.12109 30.878906,145.25 53.605469,145.25 c 3.246093,0 6.40625,0.375 9.445312,1.06641 z m 0,0"
         fill-opacity="1"
         fill-rule="nonzero"
         id="path2" />
    </g>
    <path
       fill="#c7493a"
       d="m 89.597656,183.70703 -11.53125,-18.625 c -0.140625,-0.24609 -0.449218,-0.32031 -0.695312,-0.17969 l -0.226563,0.1211 c -0.253906,0.15234 -0.339843,0.47265 -0.199219,0.71875 l 8.566407,15.05078 c 0.140625,0.2539 0.05469,0.57422 -0.199219,0.71484 l -0.601562,0.33985 c -0.246094,0.15234 -0.566407,0.0547 -0.707032,-0.1875 l -8.578125,-15.05079 c -0.140625,-0.2539 -0.460937,-0.33984 -0.707031,-0.19921 l -0.480469,0.27343 c -0.253906,0.14063 -0.339843,0.46094 -0.199219,0.71875 l 8.566407,15.04688 c 0.140625,0.24609 0.05859,0.5664 -0.199219,0.71094 l -0.601562,0.34765 c -0.246094,0.14063 -0.566407,0.0547 -0.71875,-0.19922 l -8.566407,-15.05078 c -0.140625,-0.2539 -0.460937,-0.33984 -0.714843,-0.19531 l -0.480469,0.27344 c -0.246094,0.14062 -0.339844,0.46093 -0.191407,0.71484 l 8.566407,15.05078 c 0.140625,0.25391 0.05859,0.57422 -0.195313,0.71485 l -0.605468,0.33984 c -0.253907,0.14453 -0.574219,0.0586 -0.71875,-0.19531 l -8.566407,-15.05078 c -0.140625,-0.2461 -0.460937,-0.33985 -0.714843,-0.19141 l -0.480469,0.27344 c -0.246094,0.14453 -0.339844,0.46484 -0.199219,0.71093 L 76.792969,185.75 c 0.144531,0.25781 0.05859,0.57812 -0.195313,0.71875 l -0.605468,0.34766 c -0.253907,0.14062 -0.574219,0.0586 -0.714844,-0.19922 l -8.566406,-15.04688 c -0.144532,-0.25781 -0.464844,-0.33984 -0.71875,-0.19922 l -0.273438,0.16016 c -0.246094,0.13281 -0.339844,0.44141 -0.207031,0.69922 l 10.179687,19.38672 c 1.753906,3.07422 5.535156,4.27343 8.714844,2.86718 l 6.90625,12.4961 c -3.394531,6.59765 -8.488281,12.19922 -14.6875,16.21875 -3.878906,-4.59375 -5.640625,-10.85547 -6.925781,-16.63672 -1.820313,-8.21094 -3.414063,-16.43359 -8.914063,-23.09375 -2.5,-3.01563 -5.574218,-5.54297 -9,-7.44141 3.207032,-3.10156 5.886719,-6.63672 7.925782,-10.73047 2.886718,-5.78125 4.507812,-12.07812 5.394531,-18.46484 17.820312,5.01953 30.886719,21.37109 30.886719,40.78516 0,5.20703 -0.933594,10.1875 -2.652344,14.78906 L 87.625,192.65234 c 2.820312,-2.00781 3.726562,-5.87109 1.972656,-8.94531 z m 0,0"
       fill-opacity="1"
       fill-rule="nonzero"
       id="path3" />
    <path
       fill="#689775"
       d="m 74.8125,224.30078 c -6.246094,3.61328 -13.480469,5.69531 -21.207031,5.69531 -1.007813,0 -2,-0.0352 -2.988281,-0.10156 l -0.171876,-13.37109 c 4.367188,-1.35157 7.660157,-7.38672 7.660157,-14.62891 0,-8.24219 -4.265625,-14.91797 -9.519531,-14.91797 -5.253907,0 -9.527344,6.67578 -9.527344,14.91797 0,7.24219 3.300781,13.27734 7.667968,14.62891 l -0.160156,12.89062 c -8.527344,-1.42578 -16.195312,-5.40625 -22.195312,-11.12109 -0.511719,-2.84766 -0.925782,-5.71485 -0.992188,-8.61719 -0.07422,-3.57422 0.40625,-7.19531 1.960938,-10.4375 1.386718,-2.90625 3.4375,-5.40625 5.757812,-7.61328 4.875,-4.62891 10.855469,-7.79688 16.214844,-11.78516 0.980469,-0.72656 1.90625,-1.5 2.8125,-2.29297 7.066406,3.73438 12.121094,10.01563 14.605469,17.59766 2.5625,7.83594 3.09375,16.22656 6.675781,23.73438 0.925781,1.95312 2.058594,3.78125 3.40625,5.42187 z m 0,0"
       fill-opacity="1"
       fill-rule="nonzero"
       id="path4" />
    <g
       fill="#a33327"
       fill-opacity="1"
       id="g7">
      <g
         transform="translate(156.87554,188.37702)"
         id="g6">
        <g
           id="g5">
          <path
             d="M 15.546875,-3.296875 H 8.265625 L 7.1875,0 H 0 l 8,-21.84375 h 7.890625 L 23.859375,0 h -7.21875 z m -1.65625,-5.15625 -1.984375,-6.078125 -1.96875,6.078125 z m 0,0"
             id="path5" />
        </g>
      </g>
    </g>
    <g
       fill="#a33327"
       fill-opacity="1"
       id="g10">
      <g
         transform="translate(180.73434,188.37702)"
         id="g9">
        <g
           id="g8">
          <path
             d="M 8.390625,-22.84375 V 0 h -6.84375 v -22.84375 z m 0,0"
             id="path7" />
        </g>
      </g>
    </g>
    <g
       fill="#a33327"
       fill-opacity="1"
       id="g13">
      <g
         transform="translate(190.67293,188.37702)"
         id="g12">
        <g
           id="g11">
          <path
             d="M 8.390625,-22.84375 V 0 h -6.84375 v -22.84375 z m 0,0"
             id="path10" />
        </g>
      </g>
    </g>
    <g
       fill="#a33327"
       fill-opacity="1"
       id="g19">
      <g
         transform="translate(205.8586,188.37702)"
         id="g18">
        <g
           id="g17">
          <path
             d="M 10.09375,0.21875 C 7.476562,0.21875 5.320312,-0.390625 3.625,-1.609375 1.925781,-2.835938 1.003906,-4.632812 0.859375,-7 h 7.28125 c 0.101563,1.25 0.660156,1.875 1.671875,1.875 0.375,0 0.6875,-0.082031 0.9375,-0.25 0.257812,-0.175781 0.390625,-0.453125 0.390625,-0.828125 0,-0.507813 -0.28125,-0.925781 -0.84375,-1.25 C 9.742188,-7.773438 8.882812,-8.140625 7.71875,-8.546875 6.3125,-9.035156 5.148438,-9.515625 4.234375,-9.984375 3.328125,-10.460938 2.539062,-11.15625 1.875,-12.0625 c -0.65625,-0.90625 -0.976562,-2.066406 -0.953125,-3.484375 0,-1.425781 0.363281,-2.632813 1.09375,-3.625 0.726563,-1 1.722656,-1.753906 2.984375,-2.265625 1.269531,-0.519531 2.695312,-0.78125 4.28125,-0.78125 2.675781,0 4.800781,0.621094 6.375,1.859375 1.570312,1.230469 2.398438,2.964844 2.484375,5.203125 h -7.375 c -0.02344,-0.613281 -0.179687,-1.050781 -0.46875,-1.3125 -0.28125,-0.269531 -0.625,-0.40625 -1.03125,-0.40625 -0.292969,0 -0.53125,0.101562 -0.71875,0.296875 -0.1875,0.1875 -0.28125,0.460937 -0.28125,0.8125 0,0.492187 0.269531,0.898437 0.8125,1.21875 0.550781,0.3125 1.425781,0.699219 2.625,1.15625 1.375,0.511719 2.507813,1.007813 3.40625,1.484375 0.894531,0.46875 1.671875,1.125 2.328125,1.96875 0.65625,0.84375 0.984375,1.902344 0.984375,3.171875 0,1.34375 -0.328125,2.546875 -0.984375,3.609375 -0.65625,1.054688 -1.617188,1.882812 -2.875,2.484375 -1.25,0.59375 -2.742188,0.890625 -4.46875,0.890625 z m 0,0"
             id="path16" />
        </g>
      </g>
    </g>
    <g
       fill="#a33327"
       fill-opacity="1"
       id="g22">
      <g
         transform="translate(225.14935,188.37702)"
         id="g21">
        <g
           id="g20">
          <path
             d="m 8.390625,-15.03125 c 0.4375,-0.800781 1.0625,-1.429688 1.875,-1.890625 0.8125,-0.46875 1.78125,-0.703125 2.90625,-0.703125 1.363281,0 2.585937,0.359375 3.671875,1.078125 1.09375,0.710937 1.953125,1.734375 2.578125,3.078125 0.632813,1.34375 0.953125,2.933594 0.953125,4.765625 0,1.835937 -0.320312,3.429687 -0.953125,4.78125 -0.625,1.34375 -1.484375,2.371094 -2.578125,3.078125 -1.085938,0.710938 -2.308594,1.0625 -3.671875,1.0625 -1.125,0 -2.09375,-0.2265625 -2.90625,-0.6875 -0.8125,-0.46875 -1.4375,-1.101562 -1.875,-1.90625 V 8.328125 H 1.546875 V -17.40625 h 6.84375 z m 5.03125,6.328125 c 0,-0.925781 -0.242187,-1.644531 -0.71875,-2.15625 -0.46875,-0.519531 -1.074219,-0.78125 -1.8125,-0.78125 -0.742187,0 -1.351563,0.261719 -1.828125,0.78125 -0.46875,0.511719 -0.703125,1.230469 -0.703125,2.15625 0,0.929687 0.234375,1.652344 0.703125,2.171875 0.476562,0.511719 1.085938,0.765625 1.828125,0.765625 0.738281,0 1.34375,-0.253906 1.8125,-0.765625 0.476563,-0.519531 0.71875,-1.242188 0.71875,-2.171875 z m 0,0"
             id="path19" />
        </g>
      </g>
    </g>
    <g
       fill="#a33327"
       fill-opacity="1"
       id="g25">
      <g
         transform="translate(246.13768,188.37702)"
         id="g24">
        <g
           id="g23">
          <path
             d="m 5,-18.796875 c -1.199219,0 -2.15625,-0.316406 -2.875,-0.953125 -0.71875,-0.632812 -1.078125,-1.4375 -1.078125,-2.40625 0,-0.988281 0.359375,-1.804688 1.078125,-2.453125 0.71875,-0.644531 1.675781,-0.96875 2.875,-0.96875 1.175781,0 2.125,0.324219 2.84375,0.96875 0.71875,0.648437 1.078125,1.464844 1.078125,2.453125 0,0.96875 -0.359375,1.773438 -1.078125,2.40625 C 7.125,-19.113281 6.175781,-18.796875 5,-18.796875 Z m 3.390625,1.390625 V 0 h -6.84375 v -17.40625 z m 0,0"
             id="path22" />
        </g>
      </g>
    </g>
    <g
       fill="#a33327"
       fill-opacity="1"
       id="g28">
      <g
         transform="translate(256.07627,188.37702)"
         id="g27">
        <g
           id="g26">
          <path
             d="m 0.625,-8.703125 c 0,-1.8125 0.375,-3.390625 1.125,-4.734375 0.75,-1.34375 1.796875,-2.375 3.140625,-3.09375 C 6.234375,-17.257812 7.769531,-17.625 9.5,-17.625 c 2.269531,0 4.179688,0.640625 5.734375,1.921875 1.550781,1.273437 2.53125,3.039063 2.9375,5.296875 h -7.25 C 10.648438,-11.300781 10.125,-11.75 9.34375,-11.75 c -0.554688,0 -0.992188,0.257812 -1.3125,0.765625 -0.3125,0.511719 -0.46875,1.273437 -0.46875,2.28125 0,1.011719 0.15625,1.777344 0.46875,2.296875 0.320312,0.511719 0.757812,0.765625 1.3125,0.765625 0.78125,0 1.304688,-0.453125 1.578125,-1.359375 h 7.25 c -0.40625,2.261719 -1.386719,4.03125 -2.9375,5.3125 C 13.679688,-0.414062 11.769531,0.21875 9.5,0.21875 7.769531,0.21875 6.234375,-0.140625 4.890625,-0.859375 3.546875,-1.578125 2.5,-2.609375 1.75,-3.953125 1,-5.304688 0.625,-6.890625 0.625,-8.703125 Z m 0,0"
             id="path25" />
        </g>
      </g>
    </g>
    <g
       fill="#a33327"
       fill-opacity="1"
       id="g31">
      <g
         transform="translate(274.87318,188.37702)"
         id="g30">
        <g
           id="g29">
          <path
             d="m 18.390625,-8.859375 c 0,0.480469 -0.03125,0.933594 -0.09375,1.359375 H 7.28125 c 0.101562,1.5 0.734375,2.25 1.890625,2.25 0.738281,0 1.269531,-0.335938 1.59375,-1.015625 h 7.25 c -0.242187,1.242187 -0.757813,2.351563 -1.546875,3.328125 -0.792969,0.96875 -1.792969,1.742188 -3,2.3125 C 12.269531,-0.0625 10.945312,0.21875 9.5,0.21875 7.769531,0.21875 6.234375,-0.140625 4.890625,-0.859375 3.546875,-1.578125 2.5,-2.609375 1.75,-3.953125 1,-5.304688 0.625,-6.890625 0.625,-8.703125 0.625,-10.515625 1,-12.09375 1.75,-13.4375 2.5,-14.78125 3.546875,-15.8125 4.890625,-16.53125 6.234375,-17.257812 7.769531,-17.625 9.5,-17.625 c 1.726562,0 3.265625,0.359375 4.609375,1.078125 1.351563,0.710937 2.40625,1.71875 3.15625,3.03125 0.75,1.3125 1.125,2.867187 1.125,4.65625 z M 11.453125,-10.5 c 0,-0.570312 -0.1875,-1.003906 -0.5625,-1.296875 C 10.523438,-12.097656 10.0625,-12.25 9.5,-12.25 c -1.210938,0 -1.917969,0.585938 -2.125,1.75 z m 0,0"
             id="path28" />
        </g>
      </g>
    </g>
    <g
       fill="#a33327"
       fill-opacity="1"
       id="g34">
      <g
         transform="translate(117.22396,211.24937)"
         id="g33">
        <g
           id="g32">
          <path
             d="m 2.328125,-9.78125 v 6.1875 c 0,0.875 0.210937,1.523438 0.640625,1.9375 0.425781,0.417969 1.019531,0.625 1.78125,0.625 0.738281,0 1.320312,-0.207031 1.75,-0.625 0.425781,-0.414062 0.640625,-1.0625 0.640625,-1.9375 v -6.1875 h 1.28125 v 6.171875 c 0,0.8125 -0.167969,1.5 -0.5,2.0625 C 7.597656,-0.992188 7.15625,-0.582031 6.59375,-0.3125 6.039062,-0.0390625 5.421875,0.09375 4.734375,0.09375 4.035156,0.09375 3.40625,-0.0390625 2.84375,-0.3125 2.289062,-0.582031 1.851562,-0.992188 1.53125,-1.546875 c -0.324219,-0.5625 -0.484375,-1.25 -0.484375,-2.0625 V -9.78125 Z m 0,0"
             id="path31" />
        </g>
      </g>
    </g>
    <g
       fill="#a33327"
       fill-opacity="1"
       id="g37">
      <g
         transform="translate(128.92305,211.24937)"
         id="g36">
        <g
           id="g35">
          <path
             d="m 4.828125,-7.828125 c 0.9375,0 1.691406,0.289063 2.265625,0.859375 0.582031,0.5625 0.875,1.375 0.875,2.4375 V 0 H 6.703125 V -4.34375 C 6.703125,-5.113281 6.507812,-5.703125 6.125,-6.109375 5.75,-6.515625 5.226562,-6.71875 4.5625,-6.71875 c -0.679688,0 -1.214844,0.214844 -1.609375,0.640625 C 2.554688,-5.660156 2.359375,-5.050781 2.359375,-4.25 V 0 h -1.28125 v -7.6875 h 1.28125 v 1.09375 c 0.25,-0.394531 0.59375,-0.695312 1.03125,-0.90625 0.4375,-0.21875 0.914063,-0.328125 1.4375,-0.328125 z m 0,0"
             id="path34" />
        </g>
      </g>
    </g>
    <g
       fill="#a33327"
       fill-opacity="1"
       id="g40">
      <g
         transform="translate(140.13121,211.24937)"
         id="g39">
        <g
           id="g38">
          <path
             d="M 2.359375,-10.390625 V 0 h -1.28125 v -10.390625 z m 0,0"
             id="path37" />
        </g>
      </g>
    </g>
    <g
       fill="#a33327"
       fill-opacity="1"
       id="g43">
      <g
         transform="translate(145.81289,211.24937)"
         id="g42">
        <g
           id="g41">
          <path
             d="m 8.09375,-4.140625 c 0,0.242187 -0.015625,0.496094 -0.046875,0.765625 H 1.90625 c 0.050781,0.761719 0.3125,1.355469 0.78125,1.78125 0.46875,0.429688 1.039062,0.640625 1.71875,0.640625 0.550781,0 1.007812,-0.125 1.375,-0.375 C 6.15625,-1.585938 6.414062,-1.9375 6.5625,-2.375 h 1.375 C 7.738281,-1.632812 7.328125,-1.03125 6.703125,-0.5625 6.085938,-0.101562 5.320312,0.125 4.40625,0.125 3.675781,0.125 3.019531,-0.0351562 2.4375,-0.359375 1.863281,-0.691406 1.414062,-1.160156 1.09375,-1.765625 0.769531,-2.367188 0.609375,-3.066406 0.609375,-3.859375 c 0,-0.789063 0.15625,-1.484375 0.46875,-2.078125 0.320313,-0.601562 0.769531,-1.066406 1.34375,-1.390625 C 2.992188,-7.648438 3.65625,-7.8125 4.40625,-7.8125 c 0.726562,0 1.375,0.164062 1.9375,0.484375 0.5625,0.3125 0.992188,0.75 1.296875,1.3125 0.300781,0.554687 0.453125,1.179687 0.453125,1.875 z M 6.78125,-4.40625 c 0,-0.488281 -0.109375,-0.90625 -0.328125,-1.25 C 6.234375,-6.007812 5.9375,-6.273438 5.5625,-6.453125 c -0.367188,-0.1875 -0.773438,-0.28125 -1.21875,-0.28125 -0.648438,0 -1.199219,0.210937 -1.65625,0.625 -0.449219,0.40625 -0.703125,0.976563 -0.765625,1.703125 z m 0,0"
             id="path40" />
        </g>
      </g>
    </g>
    <g
       fill="#a33327"
       fill-opacity="1"
       id="g46">
      <g
         transform="translate(156.74052,211.24937)"
         id="g45">
        <g
           id="g44">
          <path
             d="m 0.609375,-3.875 c 0,-0.78125 0.15625,-1.46875 0.46875,-2.0625 0.320313,-0.59375 0.757813,-1.050781 1.3125,-1.375 0.5625,-0.332031 1.179687,-0.5 1.859375,-0.5 0.675781,0 1.257812,0.148438 1.75,0.4375 0.5,0.28125 0.867188,0.648438 1.109375,1.09375 V -7.6875 H 8.40625 V 0 H 7.109375 v -1.4375 c -0.25,0.460938 -0.625,0.835938 -1.125,1.125 -0.5,0.2929688 -1.085937,0.4375 -1.75,0.4375 -0.679687,0 -1.292969,-0.1640625 -1.84375,-0.5 C 1.835938,-0.71875 1.398438,-1.191406 1.078125,-1.796875 0.765625,-2.398438 0.609375,-3.09375 0.609375,-3.875 Z m 6.5,0.015625 C 7.109375,-4.441406 6.988281,-4.945312 6.75,-5.375 6.519531,-5.800781 6.207031,-6.128906 5.8125,-6.359375 5.414062,-6.585938 4.976562,-6.703125 4.5,-6.703125 c -0.480469,0 -0.917969,0.117187 -1.3125,0.34375 -0.386719,0.21875 -0.699219,0.542969 -0.9375,0.96875 -0.230469,0.429687 -0.34375,0.933594 -0.34375,1.515625 0,0.59375 0.113281,1.109375 0.34375,1.546875 0.238281,0.429687 0.550781,0.757813 0.9375,0.984375 C 3.582031,-1.113281 4.019531,-1 4.5,-1 4.976562,-1 5.414062,-1.113281 5.8125,-1.34375 6.207031,-1.570312 6.519531,-1.898438 6.75,-2.328125 c 0.238281,-0.4375 0.359375,-0.945313 0.359375,-1.53125 z m 0,0"
             id="path43" />
        </g>
      </g>
    </g>
    <g
       fill="#a33327"
       fill-opacity="1"
       id="g49">
      <g
         transform="translate(168.45364,211.24937)"
         id="g48">
        <g
           id="g47">
          <path
             d="M 3.796875,0.125 C 3.210938,0.125 2.6875,0.0234375 2.21875,-0.171875 1.75,-0.378906 1.378906,-0.660156 1.109375,-1.015625 0.835938,-1.378906 0.6875,-1.796875 0.65625,-2.265625 h 1.328125 c 0.03125,0.386719 0.207031,0.703125 0.53125,0.953125 0.320313,0.242188 0.742187,0.359375 1.265625,0.359375 0.488281,0 0.875,-0.101563 1.15625,-0.3125 0.28125,-0.21875 0.421875,-0.492187 0.421875,-0.828125 0,-0.332031 -0.152344,-0.582031 -0.453125,-0.75 C 4.613281,-3.007812 4.148438,-3.171875 3.515625,-3.328125 2.953125,-3.472656 2.488281,-3.625 2.125,-3.78125 1.757812,-3.9375 1.445312,-4.164062 1.1875,-4.46875 c -0.25,-0.300781 -0.375,-0.703125 -0.375,-1.203125 0,-0.394531 0.113281,-0.753906 0.34375,-1.078125 0.238281,-0.320312 0.570312,-0.578125 1,-0.765625 0.4375,-0.195313 0.929688,-0.296875 1.484375,-0.296875 0.84375,0 1.523437,0.214844 2.046875,0.640625 C 6.21875,-6.742188 6.5,-6.15625 6.53125,-5.40625 H 5.265625 c -0.03125,-0.394531 -0.199219,-0.710938 -0.5,-0.953125 -0.292969,-0.25 -0.683594,-0.375 -1.171875,-0.375 -0.460938,0 -0.824219,0.101563 -1.09375,0.296875 -0.273438,0.199219 -0.40625,0.453125 -0.40625,0.765625 0,0.25 0.078125,0.460937 0.234375,0.625 0.164063,0.167969 0.375,0.304687 0.625,0.40625 0.25,0.09375 0.59375,0.199219 1.03125,0.3125 0.550781,0.15625 1,0.308594 1.34375,0.453125 0.34375,0.148438 0.640625,0.367188 0.890625,0.65625 0.25,0.28125 0.378906,0.65625 0.390625,1.125 0,0.429688 -0.121094,0.808594 -0.359375,1.140625 C 6.019531,-0.617188 5.691406,-0.351562 5.265625,-0.15625 4.835938,0.03125 4.347656,0.125 3.796875,0.125 Z m 0,0"
             id="path46" />
        </g>
      </g>
    </g>
    <g
       fill="#a33327"
       fill-opacity="1"
       id="g52">
      <g
         transform="translate(178.00667,211.24937)"
         id="g51">
        <g
           id="g50">
          <path
             d="m 4.890625,-7.828125 c 0.582031,0 1.109375,0.125 1.578125,0.375 0.46875,0.25 0.832031,0.625 1.09375,1.125 0.269531,0.492187 0.40625,1.089844 0.40625,1.796875 V 0 H 6.703125 V -4.34375 C 6.703125,-5.113281 6.507812,-5.703125 6.125,-6.109375 5.75,-6.515625 5.226562,-6.71875 4.5625,-6.71875 c -0.679688,0 -1.214844,0.214844 -1.609375,0.640625 C 2.554688,-5.660156 2.359375,-5.050781 2.359375,-4.25 V 0 h -1.28125 v -10.390625 h 1.28125 v 3.796875 c 0.25,-0.394531 0.59375,-0.695312 1.03125,-0.90625 0.445313,-0.21875 0.945313,-0.328125 1.5,-0.328125 z m 0,0"
             id="path49" />
        </g>
      </g>
    </g>
    <g
       fill="#a33327"
       fill-opacity="1"
       id="g58">
      <g
         transform="translate(195.19107,211.24937)"
         id="g57">
        <g
           id="g56">
          <path
             d="m 2.640625,-6.640625 v 4.53125 c 0,0.375 0.078125,0.640625 0.234375,0.796875 0.15625,0.15625 0.429688,0.234375 0.828125,0.234375 h 0.9375 V 0 H 3.5 C 2.78125,0 2.242188,-0.160156 1.890625,-0.484375 c -0.355469,-0.332031 -0.53125,-0.875 -0.53125,-1.625 v -4.53125 h -1 V -7.6875 h 1 V -9.625 h 1.28125 v 1.9375 h 2 v 1.046875 z m 0,0"
             id="path55" />
        </g>
      </g>
    </g>
    <g
       fill="#a33327"
       fill-opacity="1"
       id="g61">
      <g
         transform="translate(202.5279,211.24937)"
         id="g60">
        <g
           id="g59">
          <path
             d="m 4.890625,-7.828125 c 0.582031,0 1.109375,0.125 1.578125,0.375 0.46875,0.25 0.832031,0.625 1.09375,1.125 0.269531,0.492187 0.40625,1.089844 0.40625,1.796875 V 0 H 6.703125 V -4.34375 C 6.703125,-5.113281 6.507812,-5.703125 6.125,-6.109375 5.75,-6.515625 5.226562,-6.71875 4.5625,-6.71875 c -0.679688,0 -1.214844,0.214844 -1.609375,0.640625 C 2.554688,-5.660156 2.359375,-5.050781 2.359375,-4.25 V 0 h -1.28125 v -10.390625 h 1.28125 v 3.796875 c 0.25,-0.394531 0.59375,-0.695312 1.03125,-0.90625 0.445313,-0.21875 0.945313,-0.328125 1.5,-0.328125 z m 0,0"
             id="path58" />
        </g>
      </g>
    </g>
    <g
       fill="#a33327"
       fill-opacity="1"
       id="g64">
      <g
         transform="translate(213.73606,211.24937)"
         id="g63">
        <g
           id="g62">
          <path
             d="m 8.09375,-4.140625 c 0,0.242187 -0.015625,0.496094 -0.046875,0.765625 H 1.90625 c 0.050781,0.761719 0.3125,1.355469 0.78125,1.78125 0.46875,0.429688 1.039062,0.640625 1.71875,0.640625 0.550781,0 1.007812,-0.125 1.375,-0.375 C 6.15625,-1.585938 6.414062,-1.9375 6.5625,-2.375 h 1.375 C 7.738281,-1.632812 7.328125,-1.03125 6.703125,-0.5625 6.085938,-0.101562 5.320312,0.125 4.40625,0.125 3.675781,0.125 3.019531,-0.0351562 2.4375,-0.359375 1.863281,-0.691406 1.414062,-1.160156 1.09375,-1.765625 0.769531,-2.367188 0.609375,-3.066406 0.609375,-3.859375 c 0,-0.789063 0.15625,-1.484375 0.46875,-2.078125 0.320313,-0.601562 0.769531,-1.066406 1.34375,-1.390625 C 2.992188,-7.648438 3.65625,-7.8125 4.40625,-7.8125 c 0.726562,0 1.375,0.164062 1.9375,0.484375 0.5625,0.3125 0.992188,0.75 1.296875,1.3125 0.300781,0.554687 0.453125,1.179687 0.453125,1.875 z M 6.78125,-4.40625 c 0,-0.488281 -0.109375,-0.90625 -0.328125,-1.25 C 6.234375,-6.007812 5.9375,-6.273438 5.5625,-6.453125 c -0.367188,-0.1875 -0.773438,-0.28125 -1.21875,-0.28125 -0.648438,0 -1.199219,0.210937 -1.65625,0.625 -0.449219,0.40625 -0.703125,0.976563 -0.765625,1.703125 z m 0,0"
             id="path61" />
        </g>
      </g>
    </g>
    <g
       fill="#a33327"
       fill-opacity="1"
       id="g70">
      <g
         transform="translate(230.63993,211.24937)"
         id="g69">
        <g
           id="g68">
          <path
             d="M 0.609375,-4.890625 C 0.609375,-5.847656 0.820312,-6.707031 1.25,-7.46875 1.675781,-8.226562 2.257812,-8.820312 3,-9.25 c 0.75,-0.4375 1.578125,-0.65625 2.484375,-0.65625 1.0625,0 1.988281,0.261719 2.78125,0.78125 0.800781,0.511719 1.382813,1.234375 1.75,2.171875 H 8.484375 C 8.210938,-7.535156 7.820312,-7.984375 7.3125,-8.296875 6.800781,-8.617188 6.191406,-8.78125 5.484375,-8.78125 c -0.679687,0 -1.292969,0.164062 -1.84375,0.484375 -0.542969,0.3125 -0.96875,0.761719 -1.28125,1.34375 -0.304687,0.585937 -0.453125,1.273437 -0.453125,2.0625 0,0.773437 0.148438,1.449219 0.453125,2.03125 0.3125,0.585937 0.738281,1.039063 1.28125,1.359375 0.550781,0.3125 1.164063,0.46875 1.84375,0.46875 0.707031,0 1.316406,-0.15625 1.828125,-0.46875 0.507812,-0.3125 0.898438,-0.757812 1.171875,-1.34375 h 1.53125 c -0.367187,0.9375 -0.949219,1.664062 -1.75,2.171875 -0.792969,0.5 -1.71875,0.75 -2.78125,0.75 C 4.578125,0.078125 3.75,-0.128906 3,-0.546875 2.257812,-0.972656 1.675781,-1.566406 1.25,-2.328125 0.820312,-3.085938 0.609375,-3.941406 0.609375,-4.890625 Z m 0,0"
             id="path67" />
        </g>
      </g>
    </g>
    <g
       fill="#a33327"
       fill-opacity="1"
       id="g73">
      <g
         transform="translate(243.6996,211.24937)"
         id="g72">
        <g
           id="g71">
          <path
             d="m 4.890625,-7.828125 c 0.582031,0 1.109375,0.125 1.578125,0.375 0.46875,0.25 0.832031,0.625 1.09375,1.125 0.269531,0.492187 0.40625,1.089844 0.40625,1.796875 V 0 H 6.703125 V -4.34375 C 6.703125,-5.113281 6.507812,-5.703125 6.125,-6.109375 5.75,-6.515625 5.226562,-6.71875 4.5625,-6.71875 c -0.679688,0 -1.214844,0.214844 -1.609375,0.640625 C 2.554688,-5.660156 2.359375,-5.050781 2.359375,-4.25 V 0 h -1.28125 v -10.390625 h 1.28125 v 3.796875 c 0.25,-0.394531 0.59375,-0.695312 1.03125,-0.90625 0.445313,-0.21875 0.945313,-0.328125 1.5,-0.328125 z m 0,0"
             id="path70" />
        </g>
      </g>
    </g>
    <g
       fill="#a33327"
       fill-opacity="1"
       id="g76">
      <g
         transform="translate(254.90777,211.24937)"
         id="g75">
        <g
           id="g74">
          <path
             d="m 8.09375,-4.140625 c 0,0.242187 -0.015625,0.496094 -0.046875,0.765625 H 1.90625 c 0.050781,0.761719 0.3125,1.355469 0.78125,1.78125 0.46875,0.429688 1.039062,0.640625 1.71875,0.640625 0.550781,0 1.007812,-0.125 1.375,-0.375 C 6.15625,-1.585938 6.414062,-1.9375 6.5625,-2.375 h 1.375 C 7.738281,-1.632812 7.328125,-1.03125 6.703125,-0.5625 6.085938,-0.101562 5.320312,0.125 4.40625,0.125 3.675781,0.125 3.019531,-0.0351562 2.4375,-0.359375 1.863281,-0.691406 1.414062,-1.160156 1.09375,-1.765625 0.769531,-2.367188 0.609375,-3.066406 0.609375,-3.859375 c 0,-0.789063 0.15625,-1.484375 0.46875,-2.078125 0.320313,-0.601562 0.769531,-1.066406 1.34375,-1.390625 C 2.992188,-7.648438 3.65625,-7.8125 4.40625,-7.8125 c 0.726562,0 1.375,0.164062 1.9375,0.484375 0.5625,0.3125 0.992188,0.75 1.296875,1.3125 0.300781,0.554687 0.453125,1.179687 0.453125,1.875 z M 6.78125,-4.40625 c 0,-0.488281 -0.109375,-0.90625 -0.328125,-1.25 C 6.234375,-6.007812 5.9375,-6.273438 5.5625,-6.453125 c -0.367188,-0.1875 -0.773438,-0.28125 -1.21875,-0.28125 -0.648438,0 -1.199219,0.210937 -1.65625,0.625 -0.449219,0.40625 -0.703125,0.976563 -0.765625,1.703125 z m 0,0"
             id="path73" />
        </g>
      </g>
    </g>
    <g
       fill="#a33327"
       fill-opacity="1"
       id="g79">
      <g
         transform="translate(265.8354,211.24937)"
         id="g78">
        <g
           id="g77">
          <path
             d="M 4.203125,-6.640625 H 2.59375 V 0 H 1.3125 V -6.640625 H 0.328125 V -7.6875 H 1.3125 v -0.546875 c 0,-0.863281 0.222656,-1.492187 0.671875,-1.890625 0.445313,-0.394531 1.160156,-0.59375 2.140625,-0.59375 v 1.0625 c -0.5625,0 -0.960938,0.109375 -1.1875,0.328125 -0.230469,0.21875 -0.34375,0.585937 -0.34375,1.09375 V -7.6875 h 1.609375 z m 0,0"
             id="path76" />
        </g>
      </g>
    </g>
    <g
       fill="#a33327"
       fill-opacity="1"
       id="g85">
      <g
         transform="translate(278.65753,211.24937)"
         id="g84">
        <g
           id="g83">
          <path
             d="m 1.734375,-8.9375 c -0.242187,0 -0.445313,-0.082031 -0.609375,-0.25 -0.167969,-0.164062 -0.25,-0.375 -0.25,-0.625 0,-0.238281 0.082031,-0.441406 0.25,-0.609375 0.164062,-0.164063 0.367188,-0.25 0.609375,-0.25 0.238281,0 0.4375,0.08594 0.59375,0.25 0.164063,0.167969 0.25,0.371094 0.25,0.609375 0,0.25 -0.085937,0.460938 -0.25,0.625 -0.15625,0.167969 -0.355469,0.25 -0.59375,0.25 z m 0.625,1.25 V 0 h -1.28125 v -7.6875 z m 0,0"
             id="path82" />
        </g>
      </g>
    </g>
    <g
       fill="#a33327"
       fill-opacity="1"
       id="g88">
      <g
         transform="translate(284.3392,211.24937)"
         id="g87">
        <g
           id="g86">
          <path
             d="m 4.828125,-7.828125 c 0.9375,0 1.691406,0.289063 2.265625,0.859375 0.582031,0.5625 0.875,1.375 0.875,2.4375 V 0 H 6.703125 V -4.34375 C 6.703125,-5.113281 6.507812,-5.703125 6.125,-6.109375 5.75,-6.515625 5.226562,-6.71875 4.5625,-6.71875 c -0.679688,0 -1.214844,0.214844 -1.609375,0.640625 C 2.554688,-5.660156 2.359375,-5.050781 2.359375,-4.25 V 0 h -1.28125 v -7.6875 h 1.28125 v 1.09375 c 0.25,-0.394531 0.59375,-0.695312 1.03125,-0.90625 0.4375,-0.21875 0.914063,-0.328125 1.4375,-0.328125 z m 0,0"
             id="path85" />
        </g>
      </g>
    </g>
    <g
       fill="#a33327"
       fill-opacity="1"
       id="g94">
      <g
         transform="translate(301.5236,211.24937)"
         id="g93">
        <g
           id="g92">
          <path
             d="M 7.921875,-9.78125 4.75,-3.6875 V 0 H 3.46875 V -3.6875 L 0.265625,-9.78125 H 1.6875 l 2.40625,4.953125 2.421875,-4.953125 z m 0,0"
             id="path91" />
        </g>
      </g>
    </g>
    <g
       fill="#a33327"
       fill-opacity="1"
       id="g97">
      <g
         transform="translate(311.94627,211.24937)"
         id="g96">
        <g
           id="g95">
          <path
             d="m 4.4375,0.125 c -0.71875,0 -1.375,-0.1601562 -1.96875,-0.484375 -0.585938,-0.332031 -1.042969,-0.800781 -1.375,-1.40625 -0.324219,-0.601563 -0.484375,-1.300781 -0.484375,-2.09375 0,-0.78125 0.164063,-1.472656 0.5,-2.078125 C 1.453125,-6.539062 1.914062,-7.003906 2.5,-7.328125 3.09375,-7.648438 3.753906,-7.8125 4.484375,-7.8125 c 0.726563,0 1.390625,0.164062 1.984375,0.484375 0.59375,0.324219 1.054688,0.789063 1.390625,1.390625 0.34375,0.59375 0.515625,1.289062 0.515625,2.078125 0,0.792969 -0.179688,1.492187 -0.53125,2.09375 C 7.5,-1.160156 7.023438,-0.691406 6.421875,-0.359375 5.828125,-0.0351562 5.164062,0.125 4.4375,0.125 Z m 0,-1.125 c 0.457031,0 0.882812,-0.101562 1.28125,-0.3125 0.40625,-0.21875 0.734375,-0.539062 0.984375,-0.96875 0.25,-0.4375 0.375,-0.960938 0.375,-1.578125 0,-0.613281 -0.125,-1.132813 -0.375,-1.5625 -0.242187,-0.4375 -0.558594,-0.757813 -0.953125,-0.96875 -0.398438,-0.207031 -0.824219,-0.3125 -1.28125,-0.3125 -0.460938,0 -0.886719,0.105469 -1.28125,0.3125 -0.386719,0.210937 -0.699219,0.53125 -0.9375,0.96875 -0.230469,0.429687 -0.34375,0.949219 -0.34375,1.5625 0,0.625 0.113281,1.15625 0.34375,1.59375 0.226562,0.429687 0.535156,0.746094 0.921875,0.953125 C 3.554688,-1.101562 3.976562,-1 4.4375,-1 Z m 0,0"
             id="path94" />
        </g>
      </g>
    </g>
    <g
       fill="#a33327"
       fill-opacity="1"
       id="g100">
      <g
         transform="translate(323.15443,211.24937)"
         id="g99">
        <g
           id="g98">
          <path
             d="M 7.90625,-7.6875 V 0 H 6.625 V -1.140625 C 6.382812,-0.742188 6.046875,-0.4375 5.609375,-0.21875 5.171875,0 4.691406,0.109375 4.171875,0.109375 c -0.605469,0 -1.148437,-0.1171875 -1.625,-0.359375 -0.46875,-0.25 -0.84375,-0.625 -1.125,-1.125 -0.273437,-0.5 -0.40625,-1.101562 -0.40625,-1.8125 v -4.5 h 1.25 v 4.328125 c 0,0.761719 0.191406,1.34375 0.578125,1.75 C 3.226562,-1.203125 3.753906,-1 4.421875,-1 5.097656,-1 5.632812,-1.207031 6.03125,-1.625 6.425781,-2.050781 6.625,-2.664062 6.625,-3.46875 V -7.6875 Z m 0,0"
             id="path97" />
        </g>
      </g>
    </g>
    <path
       stroke-linecap="butt"
       transform="matrix(0.750851,0,0,0.75,101.87791,194.16286)"
       fill="none"
       stroke-linejoin="miter"
       d="M 0.00132708,1.501607 H 330.63156"
       stroke="#a33327"
       stroke-width="3"
       stroke-opacity="1"
       stroke-miterlimit="4"
       id="path100" />
  </g>
</svg>
