<?xml version="1.0" encoding="UTF-8" standalone="no"?>
<svg
   width="337.34274"
   zoomAndPan="magnify"
   viewBox="0 0 253.00706 252.1422"
   height="336.18961"
   preserveAspectRatio="xMidYMid"
   version="1.0"
   id="svg5"
   sodipodi:docname="asLogoOnly.svg"
   inkscape:version="1.3 (0e150ed6c4, 2023-07-21)"
   inkscape:export-filename="asLogoOnly.svg"
   inkscape:export-xdpi="96"
   inkscape:export-ydpi="96"
   xmlns:inkscape="http://www.inkscape.org/namespaces/inkscape"
   xmlns:sodipodi="http://sodipodi.sourceforge.net/DTD/sodipodi-0.dtd"
   xmlns="http://www.w3.org/2000/svg"
   xmlns:svg="http://www.w3.org/2000/svg">
  <sodipodi:namedview
     id="namedview5"
     pagecolor="#ffffff"
     bordercolor="#000000"
     borderopacity="0.25"
     inkscape:showpageshadow="2"
     inkscape:pageopacity="0.0"
     inkscape:pagecheckerboard="0"
     inkscape:deskcolor="#d1d1d1"
     inkscape:zoom="0.49921739"
     inkscape:cx="14.021947"
     inkscape:cy="591.9265"
     inkscape:window-width="1920"
     inkscape:window-height="991"
     inkscape:window-x="-9"
     inkscape:window-y="-9"
     inkscape:window-maximized="1"
     inkscape:current-layer="svg5" />
  <defs
     id="defs2">
    <clipPath
       id="c6905c16be">
      <path
         d="M 70.296875,70.25 H 214 V 266 H 70.296875 Z m 0,0"
         clip-rule="nonzero"
         id="path1" />
    </clipPath>
    <clipPath
       id="0ff74cc645">
      <path
         d="M 182,74 H 305.04687 V 287 H 182 Z m 0,0"
         clip-rule="nonzero"
         id="path2" />
    </clipPath>
    <filter
       style="color-interpolation-filters:sRGB"
       inkscape:label="Drop Shadow"
       id="filter13"
       x="-0.030676542"
       y="-0.030671947"
       width="1.0779695"
       height="1.0741239">
      <feFlood
         result="flood"
         in="SourceGraphic"
         flood-opacity="0.498039"
         flood-color="rgb(0,0,0)"
         id="feFlood12" />
      <feGaussianBlur
         result="blur"
         in="SourceGraphic"
         stdDeviation="3.000000"
         id="feGaussianBlur12" />
      <feOffset
         result="offset"
         in="blur"
         dx="3.900000"
         dy="3.000000"
         id="feOffset12" />
      <feComposite
         result="comp1"
         operator="in"
         in="flood"
         in2="offset"
         id="feComposite12" />
      <feComposite
         result="comp2"
         operator="over"
         in="SourceGraphic"
         in2="comp1"
         id="feComposite13" />
    </filter>
  </defs>
  <g
     id="g11"
     style="filter:url(#filter13)"
     transform="translate(-63.120311,-63.05)">
    <g
       clip-path="url(#c6905c16be)"
       id="g3">
      <path
         fill="#ad8174"
         d="m 213.77734,73.199219 c -2.14453,16.066406 -6.0625,32.078121 -12.96093,46.785161 -7.96875,17.08203 -19.75391,30.89843 -34.9375,41.99999 -14.76172,10.78907 -30.99219,19.61719 -44.3711,32.20704 -13.32422,12.51171 -21.97656,27.94921 -23.281248,46.36328 C 97.625,248.85937 98.332031,257.0625 99.53125,265.1875 84.535156,248.18359 74.371094,226.81641 71.234375,203.23047 l 24.25,-24.19141 c 0.519531,-0.54687 1.148437,-0.9375 1.855469,-1.19922 7.523436,-2.6914 18.472656,-5.92968 30.703126,-14.41797 7.18359,-5.04296 15.10156,-11.28515 23.62109,-19.09375 16.67188,-15.33203 24.48438,-28.60156 27.88281,-38.86718 3.78907,-11.546878 2.0625,-19.332034 1.20313,-22.097659 -0.16016,-0.445312 -0.73438,-0.757812 -1.01953,-0.496093 L 168.57031,93.105469 109.20313,147.59375 70.320312,181.94141 C 73.296875,119.74609 124.67188,70.25 187.62109,70.25 c 8.98828,0 17.74219,1.042969 26.15625,2.949219 z m 0,0"
         fill-opacity="1"
         fill-rule="nonzero"
         id="path3" />
    </g>
    <g
       clip-path="url(#0ff74cc645)"
       id="g4">
      <path
         fill="#c7493a"
         d="m 287.30859,176.76953 -31.92968,-51.58984 c -0.39454,-0.67969 -1.25391,-0.88672 -1.9336,-0.4961 l -0.6289,0.33985 c -0.70313,0.41797 -0.94141,1.30469 -0.54688,1.98437 l 23.72656,41.69141 c 0.39063,0.70312 0.15625,1.58984 -0.55078,1.98437 l -1.67187,0.9375 c -0.67969,0.41797 -1.56641,0.16016 -1.96094,-0.51953 l -23.75,-41.6875 c -0.39453,-0.70703 -1.28125,-0.9414 -1.96094,-0.55078 l -1.33203,0.75781 c -0.70703,0.39063 -0.94141,1.28125 -0.55078,1.98438 l 23.72656,41.6875 c 0.39453,0.67969 0.15625,1.57031 -0.54687,1.96094 l -1.67188,0.96484 c -0.67969,0.39453 -1.57031,0.15625 -1.98828,-0.54688 l -23.72656,-41.6875 c -0.39063,-0.70703 -1.28125,-0.9414 -1.98438,-0.55078 l -1.33203,0.75782 c -0.67969,0.39062 -0.9414,1.28125 -0.52344,1.98437 l 23.72657,41.69141 c 0.39062,0.70312 0.15625,1.58984 -0.55078,1.98437 l -1.67188,0.9375 c -0.70312,0.39453 -1.59375,0.16016 -1.98437,-0.54687 l -23.72657,-41.6875 c -0.39453,-0.67969 -1.28125,-0.94141 -1.98828,-0.52344 l -1.33203,0.75781 c -0.67969,0.39063 -0.94141,1.28125 -0.54687,1.96094 l 23.75,41.6875 c 0.39453,0.70312 0.16015,1.59375 -0.54688,1.98437 l -1.67187,0.96485 c -0.70704,0.39453 -1.59375,0.16015 -1.98829,-0.54688 l -23.72656,-41.6875 c -0.39062,-0.70703 -1.27734,-0.9414 -1.98437,-0.55078 l -0.75782,0.44531 c -0.67968,0.36719 -0.9414,1.22657 -0.57421,1.9336 l 28.19531,53.70312 c 4.85937,8.51563 15.33984,11.83203 24.14453,7.94141 l 19.12891,34.60937 c -9.41016,18.28516 -23.51954,33.80079 -40.6875,44.92579 -10.73829,-12.71875 -15.625,-30.0625 -19.17969,-46.07422 -5.04297,-22.75391 -9.46094,-45.53125 -24.69531,-63.97266 -6.92188,-8.35547 -15.44141,-15.35547 -24.92579,-20.60547 8.88282,-8.59375 16.30469,-18.39062 21.94922,-29.72656 7.9961,-16.01172 12.48828,-33.460938 14.94532,-51.144531 49.36328,13.898437 85.55468,59.191401 85.55468,112.972651 0,14.41797 -2.58984,28.20704 -7.34375,40.95704 l -15.83593,-27.01172 c 7.8125,-5.5625 10.32031,-16.26953 5.46093,-24.78516 z m 0,0"
         fill-opacity="1"
         fill-rule="nonzero"
         id="path4" />
    </g>
    <path
       fill="#689775"
       d="m 246.36328,289.21875 c -17.30078,10.00391 -37.33984,15.77344 -58.74219,15.77344 -2.79687,0 -5.53906,-0.10157 -8.28515,-0.28516 l -0.46875,-37.03906 c 12.09765,-3.73438 21.21875,-20.45313 21.21875,-40.51172 0,-22.83203 -11.8125,-41.32422 -26.36719,-41.32422 -14.55469,0 -26.39063,18.49219 -26.39063,41.32422 0,20.05859 9.14454,36.77734 21.24219,40.51172 L 168.125,303.375 c -23.62109,-3.94531 -44.86328,-14.96875 -61.48437,-30.79688 -1.41016,-7.88671 -2.5625,-15.82812 -2.74219,-23.875 -0.21094,-9.89843 1.12109,-19.92968 5.43359,-28.91406 3.83985,-8.04687 9.51172,-14.96875 15.94141,-21.07812 13.50781,-12.82813 30.07422,-21.60157 44.91797,-32.65235 2.71875,-2.01172 5.27734,-4.15234 7.78515,-6.34765 19.57422,10.34375 33.57813,27.74218 40.45313,48.74218 7.10547,21.70704 8.57031,44.95313 18.5,65.7461 2.55859,5.40625 5.69531,10.47265 9.43359,15.01562 z m 0,0"
       fill-opacity="1"
       fill-rule="nonzero"
       id="path5" />
  </g>
</svg>
