<?xml version="1.0" encoding="UTF-8" standalone="no"?>
<svg
   width="500"
   zoomAndPan="magnify"
   viewBox="0 0 375 374.999991"
   height="500"
   preserveAspectRatio="xMidYMid meet"
   version="1.0"
   id="svg5"
   sodipodi:docname="asLogoOnly.svg"
   inkscape:version="1.3 (0e150ed6c4, 2023-07-21)"
   inkscape:export-filename="asLogoOnly.svg"
   inkscape:export-xdpi="96"
   inkscape:export-ydpi="96"
   xmlns:inkscape="http://www.inkscape.org/namespaces/inkscape"
   xmlns:sodipodi="http://sodipodi.sourceforge.net/DTD/sodipodi-0.dtd"
   xmlns="http://www.w3.org/2000/svg"
   xmlns:svg="http://www.w3.org/2000/svg">
  <sodipodi:namedview
     id="namedview5"
     pagecolor="#ffffff"
     bordercolor="#000000"
     borderopacity="0.25"
     inkscape:showpageshadow="2"
     inkscape:pageopacity="0.0"
     inkscape:pagecheckerboard="0"
     inkscape:deskcolor="#d1d1d1"
     inkscape:zoom="0.49921739"
     inkscape:cx="14.021947"
     inkscape:cy="591.9265"
     inkscape:window-width="1920"
     inkscape:window-height="991"
     inkscape:window-x="-9"
     inkscape:window-y="-9"
     inkscape:window-maximized="1"
     inkscape:current-layer="svg5" />
  <defs
     id="defs2">
    <clipPath
       id="c6905c16be">
      <path
         d="M 70.296875 70.25 L 214 70.25 L 214 266 L 70.296875 266 Z M 70.296875 70.25 "
         clip-rule="nonzero"
         id="path1" />
    </clipPath>
    <clipPath
       id="0ff74cc645">
      <path
         d="M 182 74 L 305.046875 74 L 305.046875 287 L 182 287 Z M 182 74 "
         clip-rule="nonzero"
         id="path2" />
    </clipPath>
  </defs>
  <g
     clip-path="url(#c6905c16be)"
     id="g3">
    <path
       fill="#ad8174"
       d="M 213.777344 73.199219 C 211.632812 89.265625 207.714844 105.277344 200.816406 119.984375 C 192.847656 137.066406 181.0625 150.882812 165.878906 161.984375 C 151.117188 172.773438 134.886719 181.601562 121.507812 194.191406 C 108.183594 206.703125 99.53125 222.140625 98.226562 240.554688 C 97.625 248.859375 98.332031 257.0625 99.53125 265.1875 C 84.535156 248.183594 74.371094 226.816406 71.234375 203.230469 L 95.484375 179.039062 C 96.003906 178.492188 96.632812 178.101562 97.339844 177.839844 C 104.863281 175.148438 115.8125 171.910156 128.042969 163.421875 C 135.226562 158.378906 143.144531 152.136719 151.664062 144.328125 C 168.335938 128.996094 176.148438 115.726562 179.546875 105.460938 C 183.335938 93.914062 181.609375 86.128906 180.75 83.363281 C 180.589844 82.917969 180.015625 82.605469 179.730469 82.867188 L 168.570312 93.105469 L 109.203125 147.59375 L 70.320312 181.941406 C 73.296875 119.746094 124.671875 70.25 187.621094 70.25 C 196.609375 70.25 205.363281 71.292969 213.777344 73.199219 Z M 213.777344 73.199219 "
       fill-opacity="1"
       fill-rule="nonzero"
       id="path3" />
  </g>
  <g
     clip-path="url(#0ff74cc645)"
     id="g4">
    <path
       fill="#c7493a"
       d="M 287.308594 176.769531 L 255.378906 125.179688 C 254.984375 124.5 254.125 124.292969 253.445312 124.683594 L 252.816406 125.023438 C 252.113281 125.441406 251.875 126.328125 252.269531 127.007812 L 275.996094 168.699219 C 276.386719 169.402344 276.152344 170.289062 275.445312 170.683594 L 273.773438 171.621094 C 273.09375 172.039062 272.207031 171.78125 271.8125 171.101562 L 248.0625 129.414062 C 247.667969 128.707031 246.78125 128.472656 246.101562 128.863281 L 244.769531 129.621094 C 244.0625 130.011719 243.828125 130.902344 244.21875 131.605469 L 267.945312 173.292969 C 268.339844 173.972656 268.101562 174.863281 267.398438 175.253906 L 265.726562 176.21875 C 265.046875 176.613281 264.15625 176.375 263.738281 175.671875 L 240.011719 133.984375 C 239.621094 133.277344 238.730469 133.042969 238.027344 133.433594 L 236.695312 134.191406 C 236.015625 134.582031 235.753906 135.472656 236.171875 136.175781 L 259.898438 177.867188 C 260.289062 178.570312 260.054688 179.457031 259.347656 179.851562 L 257.675781 180.789062 C 256.972656 181.183594 256.082031 180.949219 255.691406 180.242188 L 231.964844 138.554688 C 231.570312 137.875 230.683594 137.613281 229.976562 138.03125 L 228.644531 138.789062 C 227.964844 139.179688 227.703125 140.070312 228.097656 140.75 L 251.847656 182.4375 C 252.242188 183.140625 252.007812 184.03125 251.300781 184.421875 L 249.628906 185.386719 C 248.921875 185.78125 248.035156 185.546875 247.640625 184.839844 L 223.914062 143.152344 C 223.523438 142.445312 222.636719 142.210938 221.929688 142.601562 L 221.171875 143.046875 C 220.492188 143.414062 220.230469 144.273438 220.597656 144.980469 L 248.792969 198.683594 C 253.652344 207.199219 264.132812 210.515625 272.9375 206.625 L 292.066406 241.234375 C 282.65625 259.519531 268.546875 275.035156 251.378906 286.160156 C 240.640625 273.441406 235.753906 256.097656 232.199219 240.085938 C 227.15625 217.332031 222.738281 194.554688 207.503906 176.113281 C 200.582031 167.757812 192.0625 160.757812 182.578125 155.507812 C 191.460938 146.914062 198.882812 137.117188 204.527344 125.78125 C 212.523438 109.769531 217.015625 92.320312 219.472656 74.636719 C 268.835938 88.535156 305.027344 133.828125 305.027344 187.609375 C 305.027344 202.027344 302.4375 215.816406 297.683594 228.566406 L 281.847656 201.554688 C 289.660156 195.992188 292.167969 185.285156 287.308594 176.769531 Z M 287.308594 176.769531 "
       fill-opacity="1"
       fill-rule="nonzero"
       id="path4" />
  </g>
  <path
     fill="#689775"
     d="M 246.363281 289.21875 C 229.0625 299.222656 209.023438 304.992188 187.621094 304.992188 C 184.824219 304.992188 182.082031 304.890625 179.335938 304.707031 L 178.867188 267.667969 C 190.964844 263.933594 200.085938 247.214844 200.085938 227.15625 C 200.085938 204.324219 188.273438 185.832031 173.71875 185.832031 C 159.164062 185.832031 147.328125 204.324219 147.328125 227.15625 C 147.328125 247.214844 156.472656 263.933594 168.570312 267.667969 L 168.125 303.375 C 144.503906 299.429688 123.261719 288.40625 106.640625 272.578125 C 105.230469 264.691406 104.078125 256.75 103.898438 248.703125 C 103.6875 238.804688 105.019531 228.773438 109.332031 219.789062 C 113.171875 211.742188 118.84375 204.820312 125.273438 198.710938 C 138.78125 185.882812 155.347656 177.109375 170.191406 166.058594 C 172.910156 164.046875 175.46875 161.90625 177.976562 159.710938 C 197.550781 170.054688 211.554688 187.453125 218.429688 208.453125 C 225.535156 230.160156 227 253.40625 236.929688 274.199219 C 239.488281 279.605469 242.625 284.671875 246.363281 289.214844 Z M 246.363281 289.21875 "
     fill-opacity="1"
     fill-rule="nonzero"
     id="path5" />
</svg>
