<?xml version="1.0" encoding="UTF-8" standalone="no"?>
<svg
   width="355.57712"
   zoomAndPan="magnify"
   viewBox="0 0 266.68284 304.96261"
   height="406.61682"
   preserveAspectRatio="xMidYMid"
   version="1.0"
   id="svg102"
   sodipodi:docname="asVertLogo.svg"
   inkscape:version="1.3 (0e150ed6c4, 2023-07-21)"
   inkscape:export-filename="asVertLogoShadow.png"
   inkscape:export-xdpi="96"
   inkscape:export-ydpi="96"
   xmlns:inkscape="http://www.inkscape.org/namespaces/inkscape"
   xmlns:sodipodi="http://sodipodi.sourceforge.net/DTD/sodipodi-0.dtd"
   xmlns="http://www.w3.org/2000/svg"
   xmlns:svg="http://www.w3.org/2000/svg">
  <sodipodi:namedview
     id="namedview102"
     pagecolor="#ffffff"
     bordercolor="#000000"
     borderopacity="0.25"
     inkscape:showpageshadow="2"
     inkscape:pageopacity="0.0"
     inkscape:pagecheckerboard="0"
     inkscape:deskcolor="#d1d1d1"
     inkscape:zoom="0.706"
     inkscape:cx="325.77904"
     inkscape:cy="146.60057"
     inkscape:window-width="1920"
     inkscape:window-height="991"
     inkscape:window-x="-9"
     inkscape:window-y="-9"
     inkscape:window-maximized="1"
     inkscape:current-layer="svg102" />
  <defs
     id="defs3">
    <clipPath
       id="5a0e60deb8">
      <path
         d="M 64,41.851562 H 208 V 237 H 64 Z m 0,0"
         clip-rule="nonzero"
         id="path1" />
    </clipPath>
    <clipPath
       id="3d44e4a8bf">
      <path
         d="M 176,46 H 298.67187 V 258 H 176 Z m 0,0"
         clip-rule="nonzero"
         id="path2" />
    </clipPath>
    <clipPath
       id="7a13e933b5">
      <path
         d="M 97,131 H 241 V 276.53906 H 97 Z m 0,0"
         clip-rule="nonzero"
         id="path3" />
    </clipPath>
    <filter
       style="color-interpolation-filters:sRGB"
       inkscape:label="Drop Shadow"
       id="filter4"
       x="-0.028987511"
       y="-0.025038024"
       width="1.0736766"
       height="1.0605086">
      <feFlood
         result="flood"
         in="SourceGraphic"
         flood-opacity="0.498039"
         flood-color="rgb(0,0,0)"
         id="feFlood3" />
      <feGaussianBlur
         result="blur"
         in="SourceGraphic"
         stdDeviation="3.000000"
         id="feGaussianBlur3" />
      <feOffset
         result="offset"
         in="blur"
         dx="3.900000"
         dy="3.000000"
         id="feOffset3" />
      <feComposite
         result="comp1"
         operator="in"
         in="flood"
         in2="offset"
         id="feComposite3" />
      <feComposite
         result="comp2"
         operator="over"
         in="SourceGraphic"
         in2="comp1"
         id="feComposite4" />
    </filter>
  </defs>
  <g
     id="g2"
     style="filter:url(#filter4)"
     transform="translate(-56.784374,-34.651562)">
    <g
       clip-path="url(#5a0e60deb8)"
       id="g4">
      <path
         fill="#ad8174"
         d="m 207.42578,44.804688 c -2.14453,16.058593 -6.0625,32.066406 -12.95703,46.765624 -7.96875,17.078128 -19.75,30.894528 -34.92969,41.992188 -14.76172,10.78516 -30.98437,19.60937 -44.35937,32.19922 -13.32422,12.50781 -21.968752,27.9414 -23.277346,46.35156 -0.601563,8.30078 0.105468,16.50391 1.308594,24.625 -14.996094,-17 -25.160157,-38.36328 -28.292969,-61.94141 l 24.242187,-24.18359 c 0.523438,-0.54687 1.148438,-0.9375 1.855469,-1.19922 7.523437,-2.6914 18.468755,-5.92969 30.695315,-14.41406 7.18359,-5.04297 15.10156,-11.28125 23.61718,-19.08984 16.66797,-15.32813 24.47657,-28.593754 27.875,-38.855472 3.78907,-11.542969 2.0625,-19.324219 1.19922,-22.09375 -0.15625,-0.445313 -0.73047,-0.757813 -1.01562,-0.496094 L 162.23047,64.703125 102.875,119.17188 64.003906,153.51172 C 66.980469,91.335938 118.33984,41.851562 181.27344,41.851562 c 8.98828,0 17.73828,1.042969 26.15234,2.953126 z m 0,0"
         fill-opacity="1"
         fill-rule="nonzero"
         id="path4" />
    </g>
    <g
       clip-path="url(#3d44e4a8bf)"
       id="g5">
      <path
         fill="#c7493a"
         d="M 280.94141,148.34375 249.01562,96.769531 c -0.39062,-0.679687 -1.2539,-0.890625 -1.93359,-0.496093 l -0.625,0.339843 c -0.70703,0.417969 -0.94141,1.304688 -0.55078,1.984375 l 23.72266,41.675784 c 0.39062,0.70703 0.15625,1.59375 -0.55079,1.98437 l -1.67187,0.94141 c -0.67969,0.41797 -1.56641,0.15625 -1.95703,-0.52344 L 241.69922,101 c -0.39063,-0.70703 -1.27735,-0.94141 -1.95703,-0.55078 l -1.33203,0.75781 c -0.70704,0.39063 -0.94141,1.28125 -0.55079,1.98438 l 23.72266,41.67968 c 0.39063,0.67578 0.15625,1.56641 -0.55078,1.95703 l -1.67188,0.96485 c -0.67968,0.39453 -1.5664,0.15625 -1.98437,-0.54688 l -23.72266,-41.67578 c -0.39062,-0.70703 -1.27734,-0.9414 -1.98437,-0.55078 l -1.33203,0.75781 c -0.67969,0.39063 -0.94141,1.28125 -0.52344,1.98438 l 23.72266,41.67578 c 0.39062,0.70703 0.15625,1.59375 -0.55079,1.98828 l -1.67187,0.9375 c -0.70313,0.39063 -1.59375,0.15625 -1.98438,-0.54687 l -23.72265,-41.67969 c -0.39063,-0.67578 -1.27735,-0.9375 -1.98438,-0.51953 l -1.33203,0.75781 c -0.67969,0.39063 -0.9414,1.27734 -0.54687,1.95703 l 23.74609,41.67578 c 0.39063,0.70703 0.15625,1.59375 -0.55078,1.98438 l -1.67188,0.96875 c -0.70312,0.39062 -1.59375,0.15625 -1.98437,-0.55078 L 217.5625,114.73438 c -0.39453,-0.70313 -1.28125,-0.94141 -1.98828,-0.54688 l -0.75781,0.44141 c -0.67969,0.36718 -0.9375,1.22656 -0.57422,1.93359 l 28.1875,53.6875 c 4.85937,8.51562 15.33593,11.83203 24.14062,7.94141 l 19.125,34.59765 c -9.40625,18.28125 -23.51562,33.79297 -40.67578,44.91797 -10.73828,-12.71875 -15.625,-30.05859 -19.17578,-46.06641 -5.04297,-22.74218 -9.45703,-45.51562 -24.6875,-63.94921 -6.92578,-8.35938 -15.44141,-15.35547 -24.92578,-20.60547 8.88281,-8.58985 16.30469,-18.38281 21.94531,-29.718752 7.99609,-16.003907 12.48828,-33.449219 14.94531,-51.128907 49.34766,13.894531 85.53125,59.171879 85.53125,112.941409 0,14.41406 -2.58593,28.20312 -7.34375,40.94531 l -15.82812,-27 c 7.80859,-5.5625 10.3164,-16.26953 5.45703,-24.78125 z m 0,0"
         fill-opacity="1"
         fill-rule="nonzero"
         id="path5" />
    </g>
    <g
       clip-path="url(#7a13e933b5)"
       id="g6">
      <path
         fill="#689775"
         d="m 240.00391,260.76172 c -17.29688,10 -37.33204,15.77344 -58.73047,15.77344 -2.79297,0 -5.53907,-0.10547 -8.28125,-0.28907 l -0.46875,-37.02734 c 12.09375,-3.73438 21.21093,-20.44922 21.21093,-40.50391 0,-22.82422 -11.80859,-41.3125 -26.35937,-41.3125 -14.55078,0 -26.38281,18.48828 -26.38281,41.3125 0,20.05469 9.14062,36.76953 21.23828,40.50391 l -0.44531,35.69531 c -23.61719,-3.9414 -44.85547,-14.96094 -61.46875,-30.78906 -1.414066,-7.88281 -2.562504,-15.82422 -2.746098,-23.86719 -0.207031,-9.89453 1.125,-19.92187 5.433598,-28.90625 3.84375,-8.04297 9.51172,-14.96484 15.9375,-21.07422 13.50781,-12.82031 30.07031,-21.59375 44.90625,-32.64062 2.71875,-2.01172 5.27734,-4.15235 7.78515,-6.34766 19.57031,10.34375 33.57031,27.73438 40.44141,48.73047 7.10547,21.69922 8.57031,44.94141 18.49609,65.72656 2.5625,5.40625 5.69531,10.47266 9.4336,15.01563 z m 0,0"
         fill-opacity="1"
         fill-rule="nonzero"
         id="path6" />
    </g>
    <g
       fill="#a33327"
       fill-opacity="1"
       id="g9">
      <g
         transform="translate(118.98151,306.41682)"
         id="g8">
        <g
           id="g7">
          <path
             d="M 15.546875,-3.296875 H 8.265625 L 7.1875,0 H 0 l 8,-21.84375 h 7.890625 L 23.859375,0 h -7.21875 z m -1.65625,-5.15625 -1.984375,-6.078125 -1.96875,6.078125 z m 0,0"
             id="path7" />
        </g>
      </g>
    </g>
    <g
       fill="#a33327"
       fill-opacity="1"
       id="g12">
      <g
         transform="translate(142.8403,306.41682)"
         id="g11">
        <g
           id="g10">
          <path
             d="M 8.390625,-22.84375 V 0 h -6.84375 v -22.84375 z m 0,0"
             id="path9" />
        </g>
      </g>
    </g>
    <g
       fill="#a33327"
       fill-opacity="1"
       id="g15">
      <g
         transform="translate(152.77889,306.41682)"
         id="g14">
        <g
           id="g13">
          <path
             d="M 8.390625,-22.84375 V 0 h -6.84375 v -22.84375 z m 0,0"
             id="path12" />
        </g>
      </g>
    </g>
    <g
       fill="#a33327"
       fill-opacity="1"
       id="g21">
      <g
         transform="translate(167.96457,306.41682)"
         id="g20">
        <g
           id="g19">
          <path
             d="M 10.09375,0.21875 C 7.476562,0.21875 5.320312,-0.390625 3.625,-1.609375 1.925781,-2.835938 1.003906,-4.632812 0.859375,-7 h 7.28125 c 0.101563,1.25 0.660156,1.875 1.671875,1.875 0.375,0 0.6875,-0.082031 0.9375,-0.25 0.257812,-0.175781 0.390625,-0.453125 0.390625,-0.828125 0,-0.507813 -0.28125,-0.925781 -0.84375,-1.25 C 9.742188,-7.773438 8.882812,-8.140625 7.71875,-8.546875 6.3125,-9.035156 5.148438,-9.515625 4.234375,-9.984375 3.328125,-10.460938 2.539062,-11.15625 1.875,-12.0625 c -0.65625,-0.90625 -0.976562,-2.066406 -0.953125,-3.484375 0,-1.425781 0.363281,-2.632813 1.09375,-3.625 0.726563,-1 1.722656,-1.753906 2.984375,-2.265625 1.269531,-0.519531 2.695312,-0.78125 4.28125,-0.78125 2.675781,0 4.800781,0.621094 6.375,1.859375 1.570312,1.230469 2.398438,2.964844 2.484375,5.203125 h -7.375 c -0.02344,-0.613281 -0.179687,-1.050781 -0.46875,-1.3125 -0.28125,-0.269531 -0.625,-0.40625 -1.03125,-0.40625 -0.292969,0 -0.53125,0.101562 -0.71875,0.296875 -0.1875,0.1875 -0.28125,0.460937 -0.28125,0.8125 0,0.492187 0.269531,0.898437 0.8125,1.21875 0.550781,0.3125 1.425781,0.699219 2.625,1.15625 1.375,0.511719 2.507813,1.007813 3.40625,1.484375 0.894531,0.46875 1.671875,1.125 2.328125,1.96875 0.65625,0.84375 0.984375,1.902344 0.984375,3.171875 0,1.34375 -0.328125,2.546875 -0.984375,3.609375 -0.65625,1.054688 -1.617188,1.882812 -2.875,2.484375 -1.25,0.59375 -2.742188,0.890625 -4.46875,0.890625 z m 0,0"
             id="path18" />
        </g>
      </g>
    </g>
    <g
       fill="#a33327"
       fill-opacity="1"
       id="g24">
      <g
         transform="translate(187.25531,306.41682)"
         id="g23">
        <g
           id="g22">
          <path
             d="m 8.390625,-15.03125 c 0.4375,-0.800781 1.0625,-1.429688 1.875,-1.890625 0.8125,-0.46875 1.78125,-0.703125 2.90625,-0.703125 1.363281,0 2.585937,0.359375 3.671875,1.078125 1.09375,0.710937 1.953125,1.734375 2.578125,3.078125 0.632813,1.34375 0.953125,2.933594 0.953125,4.765625 0,1.835937 -0.320312,3.429687 -0.953125,4.78125 -0.625,1.34375 -1.484375,2.371094 -2.578125,3.078125 -1.085938,0.710938 -2.308594,1.0625 -3.671875,1.0625 -1.125,0 -2.09375,-0.2265625 -2.90625,-0.6875 -0.8125,-0.46875 -1.4375,-1.101562 -1.875,-1.90625 V 8.328125 H 1.546875 V -17.40625 h 6.84375 z m 5.03125,6.328125 c 0,-0.925781 -0.242187,-1.644531 -0.71875,-2.15625 -0.46875,-0.519531 -1.074219,-0.78125 -1.8125,-0.78125 -0.742187,0 -1.351563,0.261719 -1.828125,0.78125 -0.46875,0.511719 -0.703125,1.230469 -0.703125,2.15625 0,0.929687 0.234375,1.652344 0.703125,2.171875 0.476562,0.511719 1.085938,0.765625 1.828125,0.765625 0.738281,0 1.34375,-0.253906 1.8125,-0.765625 0.476563,-0.519531 0.71875,-1.242188 0.71875,-2.171875 z m 0,0"
             id="path21" />
        </g>
      </g>
    </g>
    <g
       fill="#a33327"
       fill-opacity="1"
       id="g27">
      <g
         transform="translate(208.24365,306.41682)"
         id="g26">
        <g
           id="g25">
          <path
             d="m 5,-18.796875 c -1.199219,0 -2.15625,-0.316406 -2.875,-0.953125 -0.71875,-0.632812 -1.078125,-1.4375 -1.078125,-2.40625 0,-0.988281 0.359375,-1.804688 1.078125,-2.453125 0.71875,-0.644531 1.675781,-0.96875 2.875,-0.96875 1.175781,0 2.125,0.324219 2.84375,0.96875 0.71875,0.648437 1.078125,1.464844 1.078125,2.453125 0,0.96875 -0.359375,1.773438 -1.078125,2.40625 C 7.125,-19.113281 6.175781,-18.796875 5,-18.796875 Z m 3.390625,1.390625 V 0 h -6.84375 v -17.40625 z m 0,0"
             id="path24" />
        </g>
      </g>
    </g>
    <g
       fill="#a33327"
       fill-opacity="1"
       id="g30">
      <g
         transform="translate(218.18224,306.41682)"
         id="g29">
        <g
           id="g28">
          <path
             d="m 0.625,-8.703125 c 0,-1.8125 0.375,-3.390625 1.125,-4.734375 0.75,-1.34375 1.796875,-2.375 3.140625,-3.09375 C 6.234375,-17.257812 7.769531,-17.625 9.5,-17.625 c 2.269531,0 4.179688,0.640625 5.734375,1.921875 1.550781,1.273437 2.53125,3.039063 2.9375,5.296875 h -7.25 C 10.648438,-11.300781 10.125,-11.75 9.34375,-11.75 c -0.554688,0 -0.992188,0.257812 -1.3125,0.765625 -0.3125,0.511719 -0.46875,1.273437 -0.46875,2.28125 0,1.011719 0.15625,1.777344 0.46875,2.296875 0.320312,0.511719 0.757812,0.765625 1.3125,0.765625 0.78125,0 1.304688,-0.453125 1.578125,-1.359375 h 7.25 c -0.40625,2.261719 -1.386719,4.03125 -2.9375,5.3125 C 13.679688,-0.414062 11.769531,0.21875 9.5,0.21875 7.769531,0.21875 6.234375,-0.140625 4.890625,-0.859375 3.546875,-1.578125 2.5,-2.609375 1.75,-3.953125 1,-5.304688 0.625,-6.890625 0.625,-8.703125 Z m 0,0"
             id="path27" />
        </g>
      </g>
    </g>
    <g
       fill="#a33327"
       fill-opacity="1"
       id="g33">
      <g
         transform="translate(236.97915,306.41682)"
         id="g32">
        <g
           id="g31">
          <path
             d="m 18.390625,-8.859375 c 0,0.480469 -0.03125,0.933594 -0.09375,1.359375 H 7.28125 c 0.101562,1.5 0.734375,2.25 1.890625,2.25 0.738281,0 1.269531,-0.335938 1.59375,-1.015625 h 7.25 c -0.242187,1.242187 -0.757813,2.351563 -1.546875,3.328125 -0.792969,0.96875 -1.792969,1.742188 -3,2.3125 C 12.269531,-0.0625 10.945312,0.21875 9.5,0.21875 7.769531,0.21875 6.234375,-0.140625 4.890625,-0.859375 3.546875,-1.578125 2.5,-2.609375 1.75,-3.953125 1,-5.304688 0.625,-6.890625 0.625,-8.703125 0.625,-10.515625 1,-12.09375 1.75,-13.4375 2.5,-14.78125 3.546875,-15.8125 4.890625,-16.53125 6.234375,-17.257812 7.769531,-17.625 9.5,-17.625 c 1.726562,0 3.265625,0.359375 4.609375,1.078125 1.351563,0.710937 2.40625,1.71875 3.15625,3.03125 0.75,1.3125 1.125,2.867187 1.125,4.65625 z M 11.453125,-10.5 c 0,-0.570312 -0.1875,-1.003906 -0.5625,-1.296875 C 10.523438,-12.097656 10.0625,-12.25 9.5,-12.25 c -1.210938,0 -1.917969,0.585938 -2.125,1.75 z m 0,0"
             id="path30" />
        </g>
      </g>
    </g>
    <g
       fill="#a33327"
       fill-opacity="1"
       id="g36">
      <g
         transform="translate(79.329936,329.28919)"
         id="g35">
        <g
           id="g34">
          <path
             d="m 2.328125,-9.78125 v 6.1875 c 0,0.875 0.210937,1.523438 0.640625,1.9375 0.425781,0.417969 1.019531,0.625 1.78125,0.625 0.738281,0 1.320312,-0.207031 1.75,-0.625 0.425781,-0.414062 0.640625,-1.0625 0.640625,-1.9375 v -6.1875 h 1.28125 v 6.171875 c 0,0.8125 -0.167969,1.5 -0.5,2.0625 C 7.597656,-0.992188 7.15625,-0.582031 6.59375,-0.3125 6.039062,-0.0390625 5.421875,0.09375 4.734375,0.09375 4.035156,0.09375 3.40625,-0.0390625 2.84375,-0.3125 2.289062,-0.582031 1.851562,-0.992188 1.53125,-1.546875 c -0.324219,-0.5625 -0.484375,-1.25 -0.484375,-2.0625 V -9.78125 Z m 0,0"
             id="path33" />
        </g>
      </g>
    </g>
    <g
       fill="#a33327"
       fill-opacity="1"
       id="g39">
      <g
         transform="translate(91.029022,329.28919)"
         id="g38">
        <g
           id="g37">
          <path
             d="m 4.828125,-7.828125 c 0.9375,0 1.691406,0.289063 2.265625,0.859375 0.582031,0.5625 0.875,1.375 0.875,2.4375 V 0 H 6.703125 V -4.34375 C 6.703125,-5.113281 6.507812,-5.703125 6.125,-6.109375 5.75,-6.515625 5.226562,-6.71875 4.5625,-6.71875 c -0.679688,0 -1.214844,0.214844 -1.609375,0.640625 C 2.554688,-5.660156 2.359375,-5.050781 2.359375,-4.25 V 0 h -1.28125 v -7.6875 h 1.28125 v 1.09375 c 0.25,-0.394531 0.59375,-0.695312 1.03125,-0.90625 0.4375,-0.21875 0.914063,-0.328125 1.4375,-0.328125 z m 0,0"
             id="path36" />
        </g>
      </g>
    </g>
    <g
       fill="#a33327"
       fill-opacity="1"
       id="g42">
      <g
         transform="translate(102.23718,329.28919)"
         id="g41">
        <g
           id="g40">
          <path
             d="M 2.359375,-10.390625 V 0 h -1.28125 v -10.390625 z m 0,0"
             id="path39" />
        </g>
      </g>
    </g>
    <g
       fill="#a33327"
       fill-opacity="1"
       id="g45">
      <g
         transform="translate(107.91886,329.28919)"
         id="g44">
        <g
           id="g43">
          <path
             d="m 8.09375,-4.140625 c 0,0.242187 -0.015625,0.496094 -0.046875,0.765625 H 1.90625 c 0.050781,0.761719 0.3125,1.355469 0.78125,1.78125 0.46875,0.429688 1.039062,0.640625 1.71875,0.640625 0.550781,0 1.007812,-0.125 1.375,-0.375 C 6.15625,-1.585938 6.414062,-1.9375 6.5625,-2.375 h 1.375 C 7.738281,-1.632812 7.328125,-1.03125 6.703125,-0.5625 6.085938,-0.101562 5.320312,0.125 4.40625,0.125 3.675781,0.125 3.019531,-0.0351562 2.4375,-0.359375 1.863281,-0.691406 1.414062,-1.160156 1.09375,-1.765625 0.769531,-2.367188 0.609375,-3.066406 0.609375,-3.859375 c 0,-0.789063 0.15625,-1.484375 0.46875,-2.078125 0.320313,-0.601562 0.769531,-1.066406 1.34375,-1.390625 C 2.992188,-7.648438 3.65625,-7.8125 4.40625,-7.8125 c 0.726562,0 1.375,0.164062 1.9375,0.484375 0.5625,0.3125 0.992188,0.75 1.296875,1.3125 0.300781,0.554687 0.453125,1.179687 0.453125,1.875 z M 6.78125,-4.40625 c 0,-0.488281 -0.109375,-0.90625 -0.328125,-1.25 C 6.234375,-6.007812 5.9375,-6.273438 5.5625,-6.453125 c -0.367188,-0.1875 -0.773438,-0.28125 -1.21875,-0.28125 -0.648438,0 -1.199219,0.210937 -1.65625,0.625 -0.449219,0.40625 -0.703125,0.976563 -0.765625,1.703125 z m 0,0"
             id="path42" />
        </g>
      </g>
    </g>
    <g
       fill="#a33327"
       fill-opacity="1"
       id="g48">
      <g
         transform="translate(118.8465,329.28919)"
         id="g47">
        <g
           id="g46">
          <path
             d="m 0.609375,-3.875 c 0,-0.78125 0.15625,-1.46875 0.46875,-2.0625 0.320313,-0.59375 0.757813,-1.050781 1.3125,-1.375 0.5625,-0.332031 1.179687,-0.5 1.859375,-0.5 0.675781,0 1.257812,0.148438 1.75,0.4375 0.5,0.28125 0.867188,0.648438 1.109375,1.09375 V -7.6875 H 8.40625 V 0 H 7.109375 v -1.4375 c -0.25,0.460938 -0.625,0.835938 -1.125,1.125 -0.5,0.2929688 -1.085937,0.4375 -1.75,0.4375 -0.679687,0 -1.292969,-0.1640625 -1.84375,-0.5 C 1.835938,-0.71875 1.398438,-1.191406 1.078125,-1.796875 0.765625,-2.398438 0.609375,-3.09375 0.609375,-3.875 Z m 6.5,0.015625 C 7.109375,-4.441406 6.988281,-4.945312 6.75,-5.375 6.519531,-5.800781 6.207031,-6.128906 5.8125,-6.359375 5.414062,-6.585938 4.976562,-6.703125 4.5,-6.703125 c -0.480469,0 -0.917969,0.117187 -1.3125,0.34375 -0.386719,0.21875 -0.699219,0.542969 -0.9375,0.96875 -0.230469,0.429687 -0.34375,0.933594 -0.34375,1.515625 0,0.59375 0.113281,1.109375 0.34375,1.546875 0.238281,0.429687 0.550781,0.757813 0.9375,0.984375 C 3.582031,-1.113281 4.019531,-1 4.5,-1 4.976562,-1 5.414062,-1.113281 5.8125,-1.34375 6.207031,-1.570312 6.519531,-1.898438 6.75,-2.328125 c 0.238281,-0.4375 0.359375,-0.945313 0.359375,-1.53125 z m 0,0"
             id="path45" />
        </g>
      </g>
    </g>
    <g
       fill="#a33327"
       fill-opacity="1"
       id="g51">
      <g
         transform="translate(130.55962,329.28919)"
         id="g50">
        <g
           id="g49">
          <path
             d="M 3.796875,0.125 C 3.210938,0.125 2.6875,0.0234375 2.21875,-0.171875 1.75,-0.378906 1.378906,-0.660156 1.109375,-1.015625 0.835938,-1.378906 0.6875,-1.796875 0.65625,-2.265625 h 1.328125 c 0.03125,0.386719 0.207031,0.703125 0.53125,0.953125 0.320313,0.242188 0.742187,0.359375 1.265625,0.359375 0.488281,0 0.875,-0.101563 1.15625,-0.3125 0.28125,-0.21875 0.421875,-0.492187 0.421875,-0.828125 0,-0.332031 -0.152344,-0.582031 -0.453125,-0.75 C 4.613281,-3.007812 4.148438,-3.171875 3.515625,-3.328125 2.953125,-3.472656 2.488281,-3.625 2.125,-3.78125 1.757812,-3.9375 1.445312,-4.164062 1.1875,-4.46875 c -0.25,-0.300781 -0.375,-0.703125 -0.375,-1.203125 0,-0.394531 0.113281,-0.753906 0.34375,-1.078125 0.238281,-0.320312 0.570312,-0.578125 1,-0.765625 0.4375,-0.195313 0.929688,-0.296875 1.484375,-0.296875 0.84375,0 1.523437,0.214844 2.046875,0.640625 C 6.21875,-6.742188 6.5,-6.15625 6.53125,-5.40625 H 5.265625 c -0.03125,-0.394531 -0.199219,-0.710938 -0.5,-0.953125 -0.292969,-0.25 -0.683594,-0.375 -1.171875,-0.375 -0.460938,0 -0.824219,0.101563 -1.09375,0.296875 -0.273438,0.199219 -0.40625,0.453125 -0.40625,0.765625 0,0.25 0.078125,0.460937 0.234375,0.625 0.164063,0.167969 0.375,0.304687 0.625,0.40625 0.25,0.09375 0.59375,0.199219 1.03125,0.3125 0.550781,0.15625 1,0.308594 1.34375,0.453125 0.34375,0.148438 0.640625,0.367188 0.890625,0.65625 0.25,0.28125 0.378906,0.65625 0.390625,1.125 0,0.429688 -0.121094,0.808594 -0.359375,1.140625 C 6.019531,-0.617188 5.691406,-0.351562 5.265625,-0.15625 4.835938,0.03125 4.347656,0.125 3.796875,0.125 Z m 0,0"
             id="path48" />
        </g>
      </g>
    </g>
    <g
       fill="#a33327"
       fill-opacity="1"
       id="g54">
      <g
         transform="translate(140.11264,329.28919)"
         id="g53">
        <g
           id="g52">
          <path
             d="m 4.890625,-7.828125 c 0.582031,0 1.109375,0.125 1.578125,0.375 0.46875,0.25 0.832031,0.625 1.09375,1.125 0.269531,0.492187 0.40625,1.089844 0.40625,1.796875 V 0 H 6.703125 V -4.34375 C 6.703125,-5.113281 6.507812,-5.703125 6.125,-6.109375 5.75,-6.515625 5.226562,-6.71875 4.5625,-6.71875 c -0.679688,0 -1.214844,0.214844 -1.609375,0.640625 C 2.554688,-5.660156 2.359375,-5.050781 2.359375,-4.25 V 0 h -1.28125 v -10.390625 h 1.28125 v 3.796875 c 0.25,-0.394531 0.59375,-0.695312 1.03125,-0.90625 0.445313,-0.21875 0.945313,-0.328125 1.5,-0.328125 z m 0,0"
             id="path51" />
        </g>
      </g>
    </g>
    <g
       fill="#a33327"
       fill-opacity="1"
       id="g60">
      <g
         transform="translate(157.29704,329.28919)"
         id="g59">
        <g
           id="g58">
          <path
             d="m 2.640625,-6.640625 v 4.53125 c 0,0.375 0.078125,0.640625 0.234375,0.796875 0.15625,0.15625 0.429688,0.234375 0.828125,0.234375 h 0.9375 V 0 H 3.5 C 2.78125,0 2.242188,-0.160156 1.890625,-0.484375 c -0.355469,-0.332031 -0.53125,-0.875 -0.53125,-1.625 v -4.53125 h -1 V -7.6875 h 1 V -9.625 h 1.28125 v 1.9375 h 2 v 1.046875 z m 0,0"
             id="path57" />
        </g>
      </g>
    </g>
    <g
       fill="#a33327"
       fill-opacity="1"
       id="g63">
      <g
         transform="translate(164.63387,329.28919)"
         id="g62">
        <g
           id="g61">
          <path
             d="m 4.890625,-7.828125 c 0.582031,0 1.109375,0.125 1.578125,0.375 0.46875,0.25 0.832031,0.625 1.09375,1.125 0.269531,0.492187 0.40625,1.089844 0.40625,1.796875 V 0 H 6.703125 V -4.34375 C 6.703125,-5.113281 6.507812,-5.703125 6.125,-6.109375 5.75,-6.515625 5.226562,-6.71875 4.5625,-6.71875 c -0.679688,0 -1.214844,0.214844 -1.609375,0.640625 C 2.554688,-5.660156 2.359375,-5.050781 2.359375,-4.25 V 0 h -1.28125 v -10.390625 h 1.28125 v 3.796875 c 0.25,-0.394531 0.59375,-0.695312 1.03125,-0.90625 0.445313,-0.21875 0.945313,-0.328125 1.5,-0.328125 z m 0,0"
             id="path60" />
        </g>
      </g>
    </g>
    <g
       fill="#a33327"
       fill-opacity="1"
       id="g66">
      <g
         transform="translate(175.84203,329.28919)"
         id="g65">
        <g
           id="g64">
          <path
             d="m 8.09375,-4.140625 c 0,0.242187 -0.015625,0.496094 -0.046875,0.765625 H 1.90625 c 0.050781,0.761719 0.3125,1.355469 0.78125,1.78125 0.46875,0.429688 1.039062,0.640625 1.71875,0.640625 0.550781,0 1.007812,-0.125 1.375,-0.375 C 6.15625,-1.585938 6.414062,-1.9375 6.5625,-2.375 h 1.375 C 7.738281,-1.632812 7.328125,-1.03125 6.703125,-0.5625 6.085938,-0.101562 5.320312,0.125 4.40625,0.125 3.675781,0.125 3.019531,-0.0351562 2.4375,-0.359375 1.863281,-0.691406 1.414062,-1.160156 1.09375,-1.765625 0.769531,-2.367188 0.609375,-3.066406 0.609375,-3.859375 c 0,-0.789063 0.15625,-1.484375 0.46875,-2.078125 0.320313,-0.601562 0.769531,-1.066406 1.34375,-1.390625 C 2.992188,-7.648438 3.65625,-7.8125 4.40625,-7.8125 c 0.726562,0 1.375,0.164062 1.9375,0.484375 0.5625,0.3125 0.992188,0.75 1.296875,1.3125 0.300781,0.554687 0.453125,1.179687 0.453125,1.875 z M 6.78125,-4.40625 c 0,-0.488281 -0.109375,-0.90625 -0.328125,-1.25 C 6.234375,-6.007812 5.9375,-6.273438 5.5625,-6.453125 c -0.367188,-0.1875 -0.773438,-0.28125 -1.21875,-0.28125 -0.648438,0 -1.199219,0.210937 -1.65625,0.625 -0.449219,0.40625 -0.703125,0.976563 -0.765625,1.703125 z m 0,0"
             id="path63" />
        </g>
      </g>
    </g>
    <g
       fill="#a33327"
       fill-opacity="1"
       id="g72">
      <g
         transform="translate(192.7459,329.28919)"
         id="g71">
        <g
           id="g70">
          <path
             d="M 0.609375,-4.890625 C 0.609375,-5.847656 0.820312,-6.707031 1.25,-7.46875 1.675781,-8.226562 2.257812,-8.820312 3,-9.25 c 0.75,-0.4375 1.578125,-0.65625 2.484375,-0.65625 1.0625,0 1.988281,0.261719 2.78125,0.78125 0.800781,0.511719 1.382813,1.234375 1.75,2.171875 H 8.484375 C 8.210938,-7.535156 7.820312,-7.984375 7.3125,-8.296875 6.800781,-8.617188 6.191406,-8.78125 5.484375,-8.78125 c -0.679687,0 -1.292969,0.164062 -1.84375,0.484375 -0.542969,0.3125 -0.96875,0.761719 -1.28125,1.34375 -0.304687,0.585937 -0.453125,1.273437 -0.453125,2.0625 0,0.773437 0.148438,1.449219 0.453125,2.03125 0.3125,0.585937 0.738281,1.039063 1.28125,1.359375 0.550781,0.3125 1.164063,0.46875 1.84375,0.46875 0.707031,0 1.316406,-0.15625 1.828125,-0.46875 0.507812,-0.3125 0.898438,-0.757812 1.171875,-1.34375 h 1.53125 c -0.367187,0.9375 -0.949219,1.664062 -1.75,2.171875 -0.792969,0.5 -1.71875,0.75 -2.78125,0.75 C 4.578125,0.078125 3.75,-0.128906 3,-0.546875 2.257812,-0.972656 1.675781,-1.566406 1.25,-2.328125 0.820312,-3.085938 0.609375,-3.941406 0.609375,-4.890625 Z m 0,0"
             id="path69" />
        </g>
      </g>
    </g>
    <g
       fill="#a33327"
       fill-opacity="1"
       id="g75">
      <g
         transform="translate(205.80557,329.28919)"
         id="g74">
        <g
           id="g73">
          <path
             d="m 4.890625,-7.828125 c 0.582031,0 1.109375,0.125 1.578125,0.375 0.46875,0.25 0.832031,0.625 1.09375,1.125 0.269531,0.492187 0.40625,1.089844 0.40625,1.796875 V 0 H 6.703125 V -4.34375 C 6.703125,-5.113281 6.507812,-5.703125 6.125,-6.109375 5.75,-6.515625 5.226562,-6.71875 4.5625,-6.71875 c -0.679688,0 -1.214844,0.214844 -1.609375,0.640625 C 2.554688,-5.660156 2.359375,-5.050781 2.359375,-4.25 V 0 h -1.28125 v -10.390625 h 1.28125 v 3.796875 c 0.25,-0.394531 0.59375,-0.695312 1.03125,-0.90625 0.445313,-0.21875 0.945313,-0.328125 1.5,-0.328125 z m 0,0"
             id="path72" />
        </g>
      </g>
    </g>
    <g
       fill="#a33327"
       fill-opacity="1"
       id="g78">
      <g
         transform="translate(217.01374,329.28919)"
         id="g77">
        <g
           id="g76">
          <path
             d="m 8.09375,-4.140625 c 0,0.242187 -0.015625,0.496094 -0.046875,0.765625 H 1.90625 c 0.050781,0.761719 0.3125,1.355469 0.78125,1.78125 0.46875,0.429688 1.039062,0.640625 1.71875,0.640625 0.550781,0 1.007812,-0.125 1.375,-0.375 C 6.15625,-1.585938 6.414062,-1.9375 6.5625,-2.375 h 1.375 C 7.738281,-1.632812 7.328125,-1.03125 6.703125,-0.5625 6.085938,-0.101562 5.320312,0.125 4.40625,0.125 3.675781,0.125 3.019531,-0.0351562 2.4375,-0.359375 1.863281,-0.691406 1.414062,-1.160156 1.09375,-1.765625 0.769531,-2.367188 0.609375,-3.066406 0.609375,-3.859375 c 0,-0.789063 0.15625,-1.484375 0.46875,-2.078125 0.320313,-0.601562 0.769531,-1.066406 1.34375,-1.390625 C 2.992188,-7.648438 3.65625,-7.8125 4.40625,-7.8125 c 0.726562,0 1.375,0.164062 1.9375,0.484375 0.5625,0.3125 0.992188,0.75 1.296875,1.3125 0.300781,0.554687 0.453125,1.179687 0.453125,1.875 z M 6.78125,-4.40625 c 0,-0.488281 -0.109375,-0.90625 -0.328125,-1.25 C 6.234375,-6.007812 5.9375,-6.273438 5.5625,-6.453125 c -0.367188,-0.1875 -0.773438,-0.28125 -1.21875,-0.28125 -0.648438,0 -1.199219,0.210937 -1.65625,0.625 -0.449219,0.40625 -0.703125,0.976563 -0.765625,1.703125 z m 0,0"
             id="path75" />
        </g>
      </g>
    </g>
    <g
       fill="#a33327"
       fill-opacity="1"
       id="g81">
      <g
         transform="translate(227.94138,329.28919)"
         id="g80">
        <g
           id="g79">
          <path
             d="M 4.203125,-6.640625 H 2.59375 V 0 H 1.3125 V -6.640625 H 0.328125 V -7.6875 H 1.3125 v -0.546875 c 0,-0.863281 0.222656,-1.492187 0.671875,-1.890625 0.445313,-0.394531 1.160156,-0.59375 2.140625,-0.59375 v 1.0625 c -0.5625,0 -0.960938,0.109375 -1.1875,0.328125 -0.230469,0.21875 -0.34375,0.585937 -0.34375,1.09375 V -7.6875 h 1.609375 z m 0,0"
             id="path78" />
        </g>
      </g>
    </g>
    <g
       fill="#a33327"
       fill-opacity="1"
       id="g87">
      <g
         transform="translate(240.7635,329.28919)"
         id="g86">
        <g
           id="g85">
          <path
             d="m 1.734375,-8.9375 c -0.242187,0 -0.445313,-0.082031 -0.609375,-0.25 -0.167969,-0.164062 -0.25,-0.375 -0.25,-0.625 0,-0.238281 0.082031,-0.441406 0.25,-0.609375 0.164062,-0.164063 0.367188,-0.25 0.609375,-0.25 0.238281,0 0.4375,0.08594 0.59375,0.25 0.164063,0.167969 0.25,0.371094 0.25,0.609375 0,0.25 -0.085937,0.460938 -0.25,0.625 -0.15625,0.167969 -0.355469,0.25 -0.59375,0.25 z m 0.625,1.25 V 0 h -1.28125 v -7.6875 z m 0,0"
             id="path84" />
        </g>
      </g>
    </g>
    <g
       fill="#a33327"
       fill-opacity="1"
       id="g90">
      <g
         transform="translate(246.44517,329.28919)"
         id="g89">
        <g
           id="g88">
          <path
             d="m 4.828125,-7.828125 c 0.9375,0 1.691406,0.289063 2.265625,0.859375 0.582031,0.5625 0.875,1.375 0.875,2.4375 V 0 H 6.703125 V -4.34375 C 6.703125,-5.113281 6.507812,-5.703125 6.125,-6.109375 5.75,-6.515625 5.226562,-6.71875 4.5625,-6.71875 c -0.679688,0 -1.214844,0.214844 -1.609375,0.640625 C 2.554688,-5.660156 2.359375,-5.050781 2.359375,-4.25 V 0 h -1.28125 v -7.6875 h 1.28125 v 1.09375 c 0.25,-0.394531 0.59375,-0.695312 1.03125,-0.90625 0.4375,-0.21875 0.914063,-0.328125 1.4375,-0.328125 z m 0,0"
             id="path87" />
        </g>
      </g>
    </g>
    <g
       fill="#a33327"
       fill-opacity="1"
       id="g96">
      <g
         transform="translate(263.62957,329.28919)"
         id="g95">
        <g
           id="g94">
          <path
             d="M 7.921875,-9.78125 4.75,-3.6875 V 0 H 3.46875 V -3.6875 L 0.265625,-9.78125 H 1.6875 l 2.40625,4.953125 2.421875,-4.953125 z m 0,0"
             id="path93" />
        </g>
      </g>
    </g>
    <g
       fill="#a33327"
       fill-opacity="1"
       id="g99">
      <g
         transform="translate(274.05225,329.28919)"
         id="g98">
        <g
           id="g97">
          <path
             d="m 4.4375,0.125 c -0.71875,0 -1.375,-0.1601562 -1.96875,-0.484375 -0.585938,-0.332031 -1.042969,-0.800781 -1.375,-1.40625 -0.324219,-0.601563 -0.484375,-1.300781 -0.484375,-2.09375 0,-0.78125 0.164063,-1.472656 0.5,-2.078125 C 1.453125,-6.539062 1.914062,-7.003906 2.5,-7.328125 3.09375,-7.648438 3.753906,-7.8125 4.484375,-7.8125 c 0.726563,0 1.390625,0.164062 1.984375,0.484375 0.59375,0.324219 1.054688,0.789063 1.390625,1.390625 0.34375,0.59375 0.515625,1.289062 0.515625,2.078125 0,0.792969 -0.179688,1.492187 -0.53125,2.09375 C 7.5,-1.160156 7.023438,-0.691406 6.421875,-0.359375 5.828125,-0.0351562 5.164062,0.125 4.4375,0.125 Z m 0,-1.125 c 0.457031,0 0.882812,-0.101562 1.28125,-0.3125 0.40625,-0.21875 0.734375,-0.539062 0.984375,-0.96875 0.25,-0.4375 0.375,-0.960938 0.375,-1.578125 0,-0.613281 -0.125,-1.132813 -0.375,-1.5625 -0.242187,-0.4375 -0.558594,-0.757813 -0.953125,-0.96875 -0.398438,-0.207031 -0.824219,-0.3125 -1.28125,-0.3125 -0.460938,0 -0.886719,0.105469 -1.28125,0.3125 -0.386719,0.210937 -0.699219,0.53125 -0.9375,0.96875 -0.230469,0.429687 -0.34375,0.949219 -0.34375,1.5625 0,0.625 0.113281,1.15625 0.34375,1.59375 0.226562,0.429687 0.535156,0.746094 0.921875,0.953125 C 3.554688,-1.101562 3.976562,-1 4.4375,-1 Z m 0,0"
             id="path96" />
        </g>
      </g>
    </g>
    <g
       fill="#a33327"
       fill-opacity="1"
       id="g102">
      <g
         transform="translate(285.26041,329.28919)"
         id="g101">
        <g
           id="g100">
          <path
             d="M 7.90625,-7.6875 V 0 H 6.625 V -1.140625 C 6.382812,-0.742188 6.046875,-0.4375 5.609375,-0.21875 5.171875,0 4.691406,0.109375 4.171875,0.109375 c -0.605469,0 -1.148437,-0.1171875 -1.625,-0.359375 -0.46875,-0.25 -0.84375,-0.625 -1.125,-1.125 -0.273437,-0.5 -0.40625,-1.101562 -0.40625,-1.8125 v -4.5 h 1.25 v 4.328125 c 0,0.761719 0.191406,1.34375 0.578125,1.75 C 3.226562,-1.203125 3.753906,-1 4.421875,-1 5.097656,-1 5.632812,-1.207031 6.03125,-1.625 6.425781,-2.050781 6.625,-2.664062 6.625,-3.46875 V -7.6875 Z m 0,0"
             id="path99" />
        </g>
      </g>
    </g>
    <path
       stroke-linecap="butt"
       transform="matrix(1.054155,0,0,1.05241,63.983885,312.27525)"
       fill="none"
       stroke-linejoin="miter"
       d="M 4.64734e-4,1.00044 H 235.62315"
       stroke="#a33327"
       stroke-width="2"
       stroke-opacity="1"
       stroke-miterlimit="4"
       id="path102" />
  </g>
</svg>
