<?xml version="1.0" encoding="UTF-8" standalone="no"?>
<svg
   width="500"
   zoomAndPan="magnify"
   viewBox="0 0 375 374.999991"
   height="500"
   preserveAspectRatio="xMidYMid meet"
   version="1.0"
   id="svg102"
   sodipodi:docname="asVertLogo.svg"
   inkscape:version="1.3 (0e150ed6c4, 2023-07-21)"
   xmlns:inkscape="http://www.inkscape.org/namespaces/inkscape"
   xmlns:sodipodi="http://sodipodi.sourceforge.net/DTD/sodipodi-0.dtd"
   xmlns="http://www.w3.org/2000/svg"
   xmlns:svg="http://www.w3.org/2000/svg">
  <sodipodi:namedview
     id="namedview102"
     pagecolor="#ffffff"
     bordercolor="#000000"
     borderopacity="0.25"
     inkscape:showpageshadow="2"
     inkscape:pageopacity="0.0"
     inkscape:pagecheckerboard="0"
     inkscape:deskcolor="#d1d1d1"
     inkscape:zoom="0.706"
     inkscape:cx="325.77904"
     inkscape:cy="146.60057"
     inkscape:window-width="1920"
     inkscape:window-height="991"
     inkscape:window-x="-9"
     inkscape:window-y="-9"
     inkscape:window-maximized="1"
     inkscape:current-layer="svg102" />
  <defs
     id="defs3">
    <g
       id="g1" />
    <clipPath
       id="5a0e60deb8">
      <path
         d="M 64 41.851562 L 208 41.851562 L 208 237 L 64 237 Z M 64 41.851562 "
         clip-rule="nonzero"
         id="path1" />
    </clipPath>
    <clipPath
       id="3d44e4a8bf">
      <path
         d="M 176 46 L 298.671875 46 L 298.671875 258 L 176 258 Z M 176 46 "
         clip-rule="nonzero"
         id="path2" />
    </clipPath>
    <clipPath
       id="7a13e933b5">
      <path
         d="M 97 131 L 241 131 L 241 276.539062 L 97 276.539062 Z M 97 131 "
         clip-rule="nonzero"
         id="path3" />
    </clipPath>
  </defs>
  <g
     clip-path="url(#5a0e60deb8)"
     id="g4">
    <path
       fill="#ad8174"
       d="M 207.425781 44.804688 C 205.28125 60.863281 201.363281 76.871094 194.46875 91.570312 C 186.5 108.648438 174.71875 122.464844 159.539062 133.5625 C 144.777344 144.347656 128.554688 153.171875 115.179688 165.761719 C 101.855469 178.269531 93.210938 193.703125 91.902344 212.113281 C 91.300781 220.414062 92.007812 228.617188 93.210938 236.738281 C 78.214844 219.738281 68.050781 198.375 64.917969 174.796875 L 89.160156 150.613281 C 89.683594 150.066406 90.308594 149.675781 91.015625 149.414062 C 98.539062 146.722656 109.484375 143.484375 121.710938 135 C 128.894531 129.957031 136.8125 123.71875 145.328125 115.910156 C 161.996094 100.582031 169.804688 87.316406 173.203125 77.054688 C 176.992188 65.511719 175.265625 57.730469 174.402344 54.960938 C 174.246094 54.515625 173.671875 54.203125 173.386719 54.464844 L 162.230469 64.703125 L 102.875 119.171875 L 64.003906 153.511719 C 66.980469 91.335938 118.339844 41.851562 181.273438 41.851562 C 190.261719 41.851562 199.011719 42.894531 207.425781 44.804688 Z M 207.425781 44.804688 "
       fill-opacity="1"
       fill-rule="nonzero"
       id="path4" />
  </g>
  <g
     clip-path="url(#3d44e4a8bf)"
     id="g5">
    <path
       fill="#c7493a"
       d="M 280.941406 148.34375 L 249.015625 96.769531 C 248.625 96.089844 247.761719 95.878906 247.082031 96.273438 L 246.457031 96.613281 C 245.75 97.03125 245.515625 97.917969 245.90625 98.597656 L 269.628906 140.273438 C 270.019531 140.980469 269.785156 141.867188 269.078125 142.257812 L 267.40625 143.199219 C 266.726562 143.617188 265.839844 143.355469 265.449219 142.675781 L 241.699219 101 C 241.308594 100.292969 240.421875 100.058594 239.742188 100.449219 L 238.410156 101.207031 C 237.703125 101.597656 237.46875 102.488281 237.859375 103.191406 L 261.582031 144.871094 C 261.972656 145.546875 261.738281 146.4375 261.03125 146.828125 L 259.359375 147.792969 C 258.679688 148.1875 257.792969 147.949219 257.375 147.246094 L 233.652344 105.570312 C 233.261719 104.863281 232.375 104.628906 231.667969 105.019531 L 230.335938 105.777344 C 229.65625 106.167969 229.394531 107.058594 229.8125 107.761719 L 253.535156 149.4375 C 253.925781 150.144531 253.691406 151.03125 252.984375 151.425781 L 251.3125 152.363281 C 250.609375 152.753906 249.71875 152.519531 249.328125 151.816406 L 225.605469 110.136719 C 225.214844 109.460938 224.328125 109.199219 223.621094 109.617188 L 222.289062 110.375 C 221.609375 110.765625 221.347656 111.652344 221.742188 112.332031 L 245.488281 154.007812 C 245.878906 154.714844 245.644531 155.601562 244.9375 155.992188 L 243.265625 156.960938 C 242.5625 157.351562 241.671875 157.117188 241.28125 156.410156 L 217.5625 114.734375 C 217.167969 114.03125 216.28125 113.792969 215.574219 114.1875 L 214.816406 114.628906 C 214.136719 114.996094 213.878906 115.855469 214.242188 116.5625 L 242.429688 170.25 C 247.289062 178.765625 257.765625 182.082031 266.570312 178.191406 L 285.695312 212.789062 C 276.289062 231.070312 262.179688 246.582031 245.019531 257.707031 C 234.28125 244.988281 229.394531 227.648438 225.84375 211.640625 C 220.800781 188.898438 216.386719 166.125 201.15625 147.691406 C 194.230469 139.332031 185.714844 132.335938 176.230469 127.085938 C 185.113281 118.496094 192.535156 108.703125 198.175781 97.367188 C 206.171875 81.363281 210.664062 63.917969 213.121094 46.238281 C 262.46875 60.132812 298.652344 105.410156 298.652344 159.179688 C 298.652344 173.59375 296.066406 187.382812 291.308594 200.125 L 275.480469 173.125 C 283.289062 167.5625 285.796875 156.855469 280.9375 148.34375 Z M 280.941406 148.34375 "
       fill-opacity="1"
       fill-rule="nonzero"
       id="path5" />
  </g>
  <g
     clip-path="url(#7a13e933b5)"
     id="g6">
    <path
       fill="#689775"
       d="M 240.003906 260.761719 C 222.707031 270.761719 202.671875 276.535156 181.273438 276.535156 C 178.480469 276.535156 175.734375 276.429688 172.992188 276.246094 L 172.523438 239.21875 C 184.617188 235.484375 193.734375 218.769531 193.734375 198.714844 C 193.734375 175.890625 181.925781 157.402344 167.375 157.402344 C 152.824219 157.402344 140.992188 175.890625 140.992188 198.714844 C 140.992188 218.769531 150.132812 235.484375 162.230469 239.21875 L 161.785156 274.914062 C 138.167969 270.972656 116.929688 259.953125 100.316406 244.125 C 98.902344 236.242188 97.753906 228.300781 97.570312 220.257812 C 97.363281 210.363281 98.695312 200.335938 103.003906 191.351562 C 106.847656 183.308594 112.515625 176.386719 118.941406 170.277344 C 132.449219 157.457031 149.011719 148.683594 163.847656 137.636719 C 166.566406 135.625 169.125 133.484375 171.632812 131.289062 C 191.203125 141.632812 205.203125 159.023438 212.074219 180.019531 C 219.179688 201.71875 220.644531 224.960938 230.570312 245.746094 C 233.132812 251.152344 236.265625 256.21875 240.003906 260.761719 Z M 240.003906 260.761719 "
       fill-opacity="1"
       fill-rule="nonzero"
       id="path6" />
  </g>
  <g
     fill="#a33327"
     fill-opacity="1"
     id="g9">
    <g
       transform="translate(118.98151, 306.416816)"
       id="g8">
      <g
         id="g7">
        <path
           d="M 15.546875 -3.296875 L 8.265625 -3.296875 L 7.1875 0 L 0 0 L 8 -21.84375 L 15.890625 -21.84375 L 23.859375 0 L 16.640625 0 Z M 13.890625 -8.453125 L 11.90625 -14.53125 L 9.9375 -8.453125 Z M 13.890625 -8.453125 "
           id="path7" />
      </g>
    </g>
  </g>
  <g
     fill="#a33327"
     fill-opacity="1"
     id="g12">
    <g
       transform="translate(142.840303, 306.416816)"
       id="g11">
      <g
         id="g10">
        <path
           d="M 8.390625 -22.84375 L 8.390625 0 L 1.546875 0 L 1.546875 -22.84375 Z M 8.390625 -22.84375 "
           id="path9" />
      </g>
    </g>
  </g>
  <g
     fill="#a33327"
     fill-opacity="1"
     id="g15">
    <g
       transform="translate(152.778894, 306.416816)"
       id="g14">
      <g
         id="g13">
        <path
           d="M 8.390625 -22.84375 L 8.390625 0 L 1.546875 0 L 1.546875 -22.84375 Z M 8.390625 -22.84375 "
           id="path12" />
      </g>
    </g>
  </g>
  <g
     fill="#a33327"
     fill-opacity="1"
     id="g18">
    <g
       transform="translate(162.717486, 306.416816)"
       id="g17">
      <g
         id="g16" />
    </g>
  </g>
  <g
     fill="#a33327"
     fill-opacity="1"
     id="g21">
    <g
       transform="translate(167.96457, 306.416816)"
       id="g20">
      <g
         id="g19">
        <path
           d="M 10.09375 0.21875 C 7.476562 0.21875 5.320312 -0.390625 3.625 -1.609375 C 1.925781 -2.835938 1.003906 -4.632812 0.859375 -7 L 8.140625 -7 C 8.242188 -5.75 8.800781 -5.125 9.8125 -5.125 C 10.1875 -5.125 10.5 -5.207031 10.75 -5.375 C 11.007812 -5.550781 11.140625 -5.828125 11.140625 -6.203125 C 11.140625 -6.710938 10.859375 -7.128906 10.296875 -7.453125 C 9.742188 -7.773438 8.882812 -8.140625 7.71875 -8.546875 C 6.3125 -9.035156 5.148438 -9.515625 4.234375 -9.984375 C 3.328125 -10.460938 2.539062 -11.15625 1.875 -12.0625 C 1.21875 -12.96875 0.898438 -14.128906 0.921875 -15.546875 C 0.921875 -16.972656 1.285156 -18.179688 2.015625 -19.171875 C 2.742188 -20.171875 3.738281 -20.925781 5 -21.4375 C 6.269531 -21.957031 7.695312 -22.21875 9.28125 -22.21875 C 11.957031 -22.21875 14.082031 -21.597656 15.65625 -20.359375 C 17.226562 -19.128906 18.054688 -17.394531 18.140625 -15.15625 L 10.765625 -15.15625 C 10.742188 -15.769531 10.585938 -16.207031 10.296875 -16.46875 C 10.015625 -16.738281 9.671875 -16.875 9.265625 -16.875 C 8.972656 -16.875 8.734375 -16.773438 8.546875 -16.578125 C 8.359375 -16.390625 8.265625 -16.117188 8.265625 -15.765625 C 8.265625 -15.273438 8.535156 -14.867188 9.078125 -14.546875 C 9.628906 -14.234375 10.503906 -13.847656 11.703125 -13.390625 C 13.078125 -12.878906 14.210938 -12.382812 15.109375 -11.90625 C 16.003906 -11.4375 16.78125 -10.78125 17.4375 -9.9375 C 18.09375 -9.09375 18.421875 -8.035156 18.421875 -6.765625 C 18.421875 -5.421875 18.09375 -4.21875 17.4375 -3.15625 C 16.78125 -2.101562 15.820312 -1.273438 14.5625 -0.671875 C 13.3125 -0.078125 11.820312 0.21875 10.09375 0.21875 Z M 10.09375 0.21875 "
           id="path18" />
      </g>
    </g>
  </g>
  <g
     fill="#a33327"
     fill-opacity="1"
     id="g24">
    <g
       transform="translate(187.255312, 306.416816)"
       id="g23">
      <g
         id="g22">
        <path
           d="M 8.390625 -15.03125 C 8.828125 -15.832031 9.453125 -16.460938 10.265625 -16.921875 C 11.078125 -17.390625 12.046875 -17.625 13.171875 -17.625 C 14.535156 -17.625 15.757812 -17.265625 16.84375 -16.546875 C 17.9375 -15.835938 18.796875 -14.8125 19.421875 -13.46875 C 20.054688 -12.125 20.375 -10.535156 20.375 -8.703125 C 20.375 -6.867188 20.054688 -5.273438 19.421875 -3.921875 C 18.796875 -2.578125 17.9375 -1.550781 16.84375 -0.84375 C 15.757812 -0.132812 14.535156 0.21875 13.171875 0.21875 C 12.046875 0.21875 11.078125 -0.0078125 10.265625 -0.46875 C 9.453125 -0.9375 8.828125 -1.570312 8.390625 -2.375 L 8.390625 8.328125 L 1.546875 8.328125 L 1.546875 -17.40625 L 8.390625 -17.40625 Z M 13.421875 -8.703125 C 13.421875 -9.628906 13.179688 -10.347656 12.703125 -10.859375 C 12.234375 -11.378906 11.628906 -11.640625 10.890625 -11.640625 C 10.148438 -11.640625 9.539062 -11.378906 9.0625 -10.859375 C 8.59375 -10.347656 8.359375 -9.628906 8.359375 -8.703125 C 8.359375 -7.773438 8.59375 -7.050781 9.0625 -6.53125 C 9.539062 -6.019531 10.148438 -5.765625 10.890625 -5.765625 C 11.628906 -5.765625 12.234375 -6.019531 12.703125 -6.53125 C 13.179688 -7.050781 13.421875 -7.773438 13.421875 -8.703125 Z M 13.421875 -8.703125 "
           id="path21" />
      </g>
    </g>
  </g>
  <g
     fill="#a33327"
     fill-opacity="1"
     id="g27">
    <g
       transform="translate(208.243647, 306.416816)"
       id="g26">
      <g
         id="g25">
        <path
           d="M 5 -18.796875 C 3.800781 -18.796875 2.84375 -19.113281 2.125 -19.75 C 1.40625 -20.382812 1.046875 -21.1875 1.046875 -22.15625 C 1.046875 -23.144531 1.40625 -23.960938 2.125 -24.609375 C 2.84375 -25.253906 3.800781 -25.578125 5 -25.578125 C 6.175781 -25.578125 7.125 -25.253906 7.84375 -24.609375 C 8.5625 -23.960938 8.921875 -23.144531 8.921875 -22.15625 C 8.921875 -21.1875 8.5625 -20.382812 7.84375 -19.75 C 7.125 -19.113281 6.175781 -18.796875 5 -18.796875 Z M 8.390625 -17.40625 L 8.390625 0 L 1.546875 0 L 1.546875 -17.40625 Z M 8.390625 -17.40625 "
           id="path24" />
      </g>
    </g>
  </g>
  <g
     fill="#a33327"
     fill-opacity="1"
     id="g30">
    <g
       transform="translate(218.182239, 306.416816)"
       id="g29">
      <g
         id="g28">
        <path
           d="M 0.625 -8.703125 C 0.625 -10.515625 1 -12.09375 1.75 -13.4375 C 2.5 -14.78125 3.546875 -15.8125 4.890625 -16.53125 C 6.234375 -17.257812 7.769531 -17.625 9.5 -17.625 C 11.769531 -17.625 13.679688 -16.984375 15.234375 -15.703125 C 16.785156 -14.429688 17.765625 -12.664062 18.171875 -10.40625 L 10.921875 -10.40625 C 10.648438 -11.300781 10.125 -11.75 9.34375 -11.75 C 8.789062 -11.75 8.351562 -11.492188 8.03125 -10.984375 C 7.71875 -10.472656 7.5625 -9.710938 7.5625 -8.703125 C 7.5625 -7.691406 7.71875 -6.925781 8.03125 -6.40625 C 8.351562 -5.894531 8.789062 -5.640625 9.34375 -5.640625 C 10.125 -5.640625 10.648438 -6.09375 10.921875 -7 L 18.171875 -7 C 17.765625 -4.738281 16.785156 -2.96875 15.234375 -1.6875 C 13.679688 -0.414062 11.769531 0.21875 9.5 0.21875 C 7.769531 0.21875 6.234375 -0.140625 4.890625 -0.859375 C 3.546875 -1.578125 2.5 -2.609375 1.75 -3.953125 C 1 -5.304688 0.625 -6.890625 0.625 -8.703125 Z M 0.625 -8.703125 "
           id="path27" />
      </g>
    </g>
  </g>
  <g
     fill="#a33327"
     fill-opacity="1"
     id="g33">
    <g
       transform="translate(236.979151, 306.416816)"
       id="g32">
      <g
         id="g31">
        <path
           d="M 18.390625 -8.859375 C 18.390625 -8.378906 18.359375 -7.925781 18.296875 -7.5 L 7.28125 -7.5 C 7.382812 -6 8.015625 -5.25 9.171875 -5.25 C 9.910156 -5.25 10.441406 -5.585938 10.765625 -6.265625 L 18.015625 -6.265625 C 17.773438 -5.023438 17.257812 -3.914062 16.46875 -2.9375 C 15.675781 -1.96875 14.675781 -1.195312 13.46875 -0.625 C 12.269531 -0.0625 10.945312 0.21875 9.5 0.21875 C 7.769531 0.21875 6.234375 -0.140625 4.890625 -0.859375 C 3.546875 -1.578125 2.5 -2.609375 1.75 -3.953125 C 1 -5.304688 0.625 -6.890625 0.625 -8.703125 C 0.625 -10.515625 1 -12.09375 1.75 -13.4375 C 2.5 -14.78125 3.546875 -15.8125 4.890625 -16.53125 C 6.234375 -17.257812 7.769531 -17.625 9.5 -17.625 C 11.226562 -17.625 12.765625 -17.265625 14.109375 -16.546875 C 15.460938 -15.835938 16.515625 -14.828125 17.265625 -13.515625 C 18.015625 -12.203125 18.390625 -10.648438 18.390625 -8.859375 Z M 11.453125 -10.5 C 11.453125 -11.070312 11.265625 -11.503906 10.890625 -11.796875 C 10.523438 -12.097656 10.0625 -12.25 9.5 -12.25 C 8.289062 -12.25 7.582031 -11.664062 7.375 -10.5 Z M 11.453125 -10.5 "
           id="path30" />
      </g>
    </g>
  </g>
  <g
     fill="#a33327"
     fill-opacity="1"
     id="g36">
    <g
       transform="translate(79.329936, 329.289192)"
       id="g35">
      <g
         id="g34">
        <path
           d="M 2.328125 -9.78125 L 2.328125 -3.59375 C 2.328125 -2.71875 2.539062 -2.070312 2.96875 -1.65625 C 3.394531 -1.238281 3.988281 -1.03125 4.75 -1.03125 C 5.488281 -1.03125 6.070312 -1.238281 6.5 -1.65625 C 6.925781 -2.070312 7.140625 -2.71875 7.140625 -3.59375 L 7.140625 -9.78125 L 8.421875 -9.78125 L 8.421875 -3.609375 C 8.421875 -2.796875 8.253906 -2.109375 7.921875 -1.546875 C 7.597656 -0.992188 7.15625 -0.582031 6.59375 -0.3125 C 6.039062 -0.0390625 5.421875 0.09375 4.734375 0.09375 C 4.035156 0.09375 3.40625 -0.0390625 2.84375 -0.3125 C 2.289062 -0.582031 1.851562 -0.992188 1.53125 -1.546875 C 1.207031 -2.109375 1.046875 -2.796875 1.046875 -3.609375 L 1.046875 -9.78125 Z M 2.328125 -9.78125 "
           id="path33" />
      </g>
    </g>
  </g>
  <g
     fill="#a33327"
     fill-opacity="1"
     id="g39">
    <g
       transform="translate(91.029022, 329.289192)"
       id="g38">
      <g
         id="g37">
        <path
           d="M 4.828125 -7.828125 C 5.765625 -7.828125 6.519531 -7.539062 7.09375 -6.96875 C 7.675781 -6.40625 7.96875 -5.59375 7.96875 -4.53125 L 7.96875 0 L 6.703125 0 L 6.703125 -4.34375 C 6.703125 -5.113281 6.507812 -5.703125 6.125 -6.109375 C 5.75 -6.515625 5.226562 -6.71875 4.5625 -6.71875 C 3.882812 -6.71875 3.347656 -6.503906 2.953125 -6.078125 C 2.554688 -5.660156 2.359375 -5.050781 2.359375 -4.25 L 2.359375 0 L 1.078125 0 L 1.078125 -7.6875 L 2.359375 -7.6875 L 2.359375 -6.59375 C 2.609375 -6.988281 2.953125 -7.289062 3.390625 -7.5 C 3.828125 -7.71875 4.304688 -7.828125 4.828125 -7.828125 Z M 4.828125 -7.828125 "
           id="path36" />
      </g>
    </g>
  </g>
  <g
     fill="#a33327"
     fill-opacity="1"
     id="g42">
    <g
       transform="translate(102.237184, 329.289192)"
       id="g41">
      <g
         id="g40">
        <path
           d="M 2.359375 -10.390625 L 2.359375 0 L 1.078125 0 L 1.078125 -10.390625 Z M 2.359375 -10.390625 "
           id="path39" />
      </g>
    </g>
  </g>
  <g
     fill="#a33327"
     fill-opacity="1"
     id="g45">
    <g
       transform="translate(107.918861, 329.289192)"
       id="g44">
      <g
         id="g43">
        <path
           d="M 8.09375 -4.140625 C 8.09375 -3.898438 8.078125 -3.644531 8.046875 -3.375 L 1.90625 -3.375 C 1.957031 -2.613281 2.21875 -2.019531 2.6875 -1.59375 C 3.15625 -1.164062 3.726562 -0.953125 4.40625 -0.953125 C 4.957031 -0.953125 5.414062 -1.078125 5.78125 -1.328125 C 6.15625 -1.585938 6.414062 -1.9375 6.5625 -2.375 L 7.9375 -2.375 C 7.738281 -1.632812 7.328125 -1.03125 6.703125 -0.5625 C 6.085938 -0.101562 5.320312 0.125 4.40625 0.125 C 3.675781 0.125 3.019531 -0.0351562 2.4375 -0.359375 C 1.863281 -0.691406 1.414062 -1.160156 1.09375 -1.765625 C 0.769531 -2.367188 0.609375 -3.066406 0.609375 -3.859375 C 0.609375 -4.648438 0.765625 -5.34375 1.078125 -5.9375 C 1.398438 -6.539062 1.847656 -7.003906 2.421875 -7.328125 C 2.992188 -7.648438 3.65625 -7.8125 4.40625 -7.8125 C 5.132812 -7.8125 5.78125 -7.648438 6.34375 -7.328125 C 6.90625 -7.015625 7.335938 -6.578125 7.640625 -6.015625 C 7.941406 -5.460938 8.09375 -4.835938 8.09375 -4.140625 Z M 6.78125 -4.40625 C 6.78125 -4.894531 6.671875 -5.3125 6.453125 -5.65625 C 6.234375 -6.007812 5.9375 -6.273438 5.5625 -6.453125 C 5.195312 -6.640625 4.789062 -6.734375 4.34375 -6.734375 C 3.695312 -6.734375 3.144531 -6.523438 2.6875 -6.109375 C 2.238281 -5.703125 1.984375 -5.132812 1.921875 -4.40625 Z M 6.78125 -4.40625 "
           id="path42" />
      </g>
    </g>
  </g>
  <g
     fill="#a33327"
     fill-opacity="1"
     id="g48">
    <g
       transform="translate(118.846496, 329.289192)"
       id="g47">
      <g
         id="g46">
        <path
           d="M 0.609375 -3.875 C 0.609375 -4.65625 0.765625 -5.34375 1.078125 -5.9375 C 1.398438 -6.53125 1.835938 -6.988281 2.390625 -7.3125 C 2.953125 -7.644531 3.570312 -7.8125 4.25 -7.8125 C 4.925781 -7.8125 5.507812 -7.664062 6 -7.375 C 6.5 -7.09375 6.867188 -6.726562 7.109375 -6.28125 L 7.109375 -7.6875 L 8.40625 -7.6875 L 8.40625 0 L 7.109375 0 L 7.109375 -1.4375 C 6.859375 -0.976562 6.484375 -0.601562 5.984375 -0.3125 C 5.484375 -0.0195312 4.898438 0.125 4.234375 0.125 C 3.554688 0.125 2.941406 -0.0390625 2.390625 -0.375 C 1.835938 -0.71875 1.398438 -1.191406 1.078125 -1.796875 C 0.765625 -2.398438 0.609375 -3.09375 0.609375 -3.875 Z M 7.109375 -3.859375 C 7.109375 -4.441406 6.988281 -4.945312 6.75 -5.375 C 6.519531 -5.800781 6.207031 -6.128906 5.8125 -6.359375 C 5.414062 -6.585938 4.976562 -6.703125 4.5 -6.703125 C 4.019531 -6.703125 3.582031 -6.585938 3.1875 -6.359375 C 2.800781 -6.140625 2.488281 -5.816406 2.25 -5.390625 C 2.019531 -4.960938 1.90625 -4.457031 1.90625 -3.875 C 1.90625 -3.28125 2.019531 -2.765625 2.25 -2.328125 C 2.488281 -1.898438 2.800781 -1.570312 3.1875 -1.34375 C 3.582031 -1.113281 4.019531 -1 4.5 -1 C 4.976562 -1 5.414062 -1.113281 5.8125 -1.34375 C 6.207031 -1.570312 6.519531 -1.898438 6.75 -2.328125 C 6.988281 -2.765625 7.109375 -3.273438 7.109375 -3.859375 Z M 7.109375 -3.859375 "
           id="path45" />
      </g>
    </g>
  </g>
  <g
     fill="#a33327"
     fill-opacity="1"
     id="g51">
    <g
       transform="translate(130.559616, 329.289192)"
       id="g50">
      <g
         id="g49">
        <path
           d="M 3.796875 0.125 C 3.210938 0.125 2.6875 0.0234375 2.21875 -0.171875 C 1.75 -0.378906 1.378906 -0.660156 1.109375 -1.015625 C 0.835938 -1.378906 0.6875 -1.796875 0.65625 -2.265625 L 1.984375 -2.265625 C 2.015625 -1.878906 2.191406 -1.5625 2.515625 -1.3125 C 2.835938 -1.070312 3.257812 -0.953125 3.78125 -0.953125 C 4.269531 -0.953125 4.65625 -1.054688 4.9375 -1.265625 C 5.21875 -1.484375 5.359375 -1.757812 5.359375 -2.09375 C 5.359375 -2.425781 5.207031 -2.675781 4.90625 -2.84375 C 4.613281 -3.007812 4.148438 -3.171875 3.515625 -3.328125 C 2.953125 -3.472656 2.488281 -3.625 2.125 -3.78125 C 1.757812 -3.9375 1.445312 -4.164062 1.1875 -4.46875 C 0.9375 -4.769531 0.8125 -5.171875 0.8125 -5.671875 C 0.8125 -6.066406 0.925781 -6.425781 1.15625 -6.75 C 1.394531 -7.070312 1.726562 -7.328125 2.15625 -7.515625 C 2.59375 -7.710938 3.085938 -7.8125 3.640625 -7.8125 C 4.484375 -7.8125 5.164062 -7.597656 5.6875 -7.171875 C 6.21875 -6.742188 6.5 -6.15625 6.53125 -5.40625 L 5.265625 -5.40625 C 5.234375 -5.800781 5.066406 -6.117188 4.765625 -6.359375 C 4.472656 -6.609375 4.082031 -6.734375 3.59375 -6.734375 C 3.132812 -6.734375 2.769531 -6.632812 2.5 -6.4375 C 2.226562 -6.238281 2.09375 -5.984375 2.09375 -5.671875 C 2.09375 -5.421875 2.171875 -5.210938 2.328125 -5.046875 C 2.492188 -4.878906 2.703125 -4.742188 2.953125 -4.640625 C 3.203125 -4.546875 3.546875 -4.441406 3.984375 -4.328125 C 4.535156 -4.171875 4.984375 -4.019531 5.328125 -3.875 C 5.671875 -3.726562 5.96875 -3.507812 6.21875 -3.21875 C 6.46875 -2.9375 6.597656 -2.5625 6.609375 -2.09375 C 6.609375 -1.664062 6.488281 -1.285156 6.25 -0.953125 C 6.019531 -0.617188 5.691406 -0.351562 5.265625 -0.15625 C 4.835938 0.03125 4.347656 0.125 3.796875 0.125 Z M 3.796875 0.125 "
           id="path48" />
      </g>
    </g>
  </g>
  <g
     fill="#a33327"
     fill-opacity="1"
     id="g54">
    <g
       transform="translate(140.112643, 329.289192)"
       id="g53">
      <g
         id="g52">
        <path
           d="M 4.890625 -7.828125 C 5.472656 -7.828125 6 -7.703125 6.46875 -7.453125 C 6.9375 -7.203125 7.300781 -6.828125 7.5625 -6.328125 C 7.832031 -5.835938 7.96875 -5.238281 7.96875 -4.53125 L 7.96875 0 L 6.703125 0 L 6.703125 -4.34375 C 6.703125 -5.113281 6.507812 -5.703125 6.125 -6.109375 C 5.75 -6.515625 5.226562 -6.71875 4.5625 -6.71875 C 3.882812 -6.71875 3.347656 -6.503906 2.953125 -6.078125 C 2.554688 -5.660156 2.359375 -5.050781 2.359375 -4.25 L 2.359375 0 L 1.078125 0 L 1.078125 -10.390625 L 2.359375 -10.390625 L 2.359375 -6.59375 C 2.609375 -6.988281 2.953125 -7.289062 3.390625 -7.5 C 3.835938 -7.71875 4.335938 -7.828125 4.890625 -7.828125 Z M 4.890625 -7.828125 "
           id="path51" />
      </g>
    </g>
  </g>
  <g
     fill="#a33327"
     fill-opacity="1"
     id="g57">
    <g
       transform="translate(151.320808, 329.289192)"
       id="g56">
      <g
         id="g55" />
    </g>
  </g>
  <g
     fill="#a33327"
     fill-opacity="1"
     id="g60">
    <g
       transform="translate(157.297044, 329.289192)"
       id="g59">
      <g
         id="g58">
        <path
           d="M 2.640625 -6.640625 L 2.640625 -2.109375 C 2.640625 -1.734375 2.71875 -1.46875 2.875 -1.3125 C 3.03125 -1.15625 3.304688 -1.078125 3.703125 -1.078125 L 4.640625 -1.078125 L 4.640625 0 L 3.5 0 C 2.78125 0 2.242188 -0.160156 1.890625 -0.484375 C 1.535156 -0.816406 1.359375 -1.359375 1.359375 -2.109375 L 1.359375 -6.640625 L 0.359375 -6.640625 L 0.359375 -7.6875 L 1.359375 -7.6875 L 1.359375 -9.625 L 2.640625 -9.625 L 2.640625 -7.6875 L 4.640625 -7.6875 L 4.640625 -6.640625 Z M 2.640625 -6.640625 "
           id="path57" />
      </g>
    </g>
  </g>
  <g
     fill="#a33327"
     fill-opacity="1"
     id="g63">
    <g
       transform="translate(164.633869, 329.289192)"
       id="g62">
      <g
         id="g61">
        <path
           d="M 4.890625 -7.828125 C 5.472656 -7.828125 6 -7.703125 6.46875 -7.453125 C 6.9375 -7.203125 7.300781 -6.828125 7.5625 -6.328125 C 7.832031 -5.835938 7.96875 -5.238281 7.96875 -4.53125 L 7.96875 0 L 6.703125 0 L 6.703125 -4.34375 C 6.703125 -5.113281 6.507812 -5.703125 6.125 -6.109375 C 5.75 -6.515625 5.226562 -6.71875 4.5625 -6.71875 C 3.882812 -6.71875 3.347656 -6.503906 2.953125 -6.078125 C 2.554688 -5.660156 2.359375 -5.050781 2.359375 -4.25 L 2.359375 0 L 1.078125 0 L 1.078125 -10.390625 L 2.359375 -10.390625 L 2.359375 -6.59375 C 2.609375 -6.988281 2.953125 -7.289062 3.390625 -7.5 C 3.835938 -7.71875 4.335938 -7.828125 4.890625 -7.828125 Z M 4.890625 -7.828125 "
           id="path60" />
      </g>
    </g>
  </g>
  <g
     fill="#a33327"
     fill-opacity="1"
     id="g66">
    <g
       transform="translate(175.842029, 329.289192)"
       id="g65">
      <g
         id="g64">
        <path
           d="M 8.09375 -4.140625 C 8.09375 -3.898438 8.078125 -3.644531 8.046875 -3.375 L 1.90625 -3.375 C 1.957031 -2.613281 2.21875 -2.019531 2.6875 -1.59375 C 3.15625 -1.164062 3.726562 -0.953125 4.40625 -0.953125 C 4.957031 -0.953125 5.414062 -1.078125 5.78125 -1.328125 C 6.15625 -1.585938 6.414062 -1.9375 6.5625 -2.375 L 7.9375 -2.375 C 7.738281 -1.632812 7.328125 -1.03125 6.703125 -0.5625 C 6.085938 -0.101562 5.320312 0.125 4.40625 0.125 C 3.675781 0.125 3.019531 -0.0351562 2.4375 -0.359375 C 1.863281 -0.691406 1.414062 -1.160156 1.09375 -1.765625 C 0.769531 -2.367188 0.609375 -3.066406 0.609375 -3.859375 C 0.609375 -4.648438 0.765625 -5.34375 1.078125 -5.9375 C 1.398438 -6.539062 1.847656 -7.003906 2.421875 -7.328125 C 2.992188 -7.648438 3.65625 -7.8125 4.40625 -7.8125 C 5.132812 -7.8125 5.78125 -7.648438 6.34375 -7.328125 C 6.90625 -7.015625 7.335938 -6.578125 7.640625 -6.015625 C 7.941406 -5.460938 8.09375 -4.835938 8.09375 -4.140625 Z M 6.78125 -4.40625 C 6.78125 -4.894531 6.671875 -5.3125 6.453125 -5.65625 C 6.234375 -6.007812 5.9375 -6.273438 5.5625 -6.453125 C 5.195312 -6.640625 4.789062 -6.734375 4.34375 -6.734375 C 3.695312 -6.734375 3.144531 -6.523438 2.6875 -6.109375 C 2.238281 -5.703125 1.984375 -5.132812 1.921875 -4.40625 Z M 6.78125 -4.40625 "
           id="path63" />
      </g>
    </g>
  </g>
  <g
     fill="#a33327"
     fill-opacity="1"
     id="g69">
    <g
       transform="translate(186.769664, 329.289192)"
       id="g68">
      <g
         id="g67" />
    </g>
  </g>
  <g
     fill="#a33327"
     fill-opacity="1"
     id="g72">
    <g
       transform="translate(192.7459, 329.289192)"
       id="g71">
      <g
         id="g70">
        <path
           d="M 0.609375 -4.890625 C 0.609375 -5.847656 0.820312 -6.707031 1.25 -7.46875 C 1.675781 -8.226562 2.257812 -8.820312 3 -9.25 C 3.75 -9.6875 4.578125 -9.90625 5.484375 -9.90625 C 6.546875 -9.90625 7.472656 -9.644531 8.265625 -9.125 C 9.066406 -8.613281 9.648438 -7.890625 10.015625 -6.953125 L 8.484375 -6.953125 C 8.210938 -7.535156 7.820312 -7.984375 7.3125 -8.296875 C 6.800781 -8.617188 6.191406 -8.78125 5.484375 -8.78125 C 4.804688 -8.78125 4.191406 -8.617188 3.640625 -8.296875 C 3.097656 -7.984375 2.671875 -7.535156 2.359375 -6.953125 C 2.054688 -6.367188 1.90625 -5.679688 1.90625 -4.890625 C 1.90625 -4.117188 2.054688 -3.441406 2.359375 -2.859375 C 2.671875 -2.273438 3.097656 -1.820312 3.640625 -1.5 C 4.191406 -1.1875 4.804688 -1.03125 5.484375 -1.03125 C 6.191406 -1.03125 6.800781 -1.1875 7.3125 -1.5 C 7.820312 -1.8125 8.210938 -2.257812 8.484375 -2.84375 L 10.015625 -2.84375 C 9.648438 -1.90625 9.066406 -1.179688 8.265625 -0.671875 C 7.472656 -0.171875 6.546875 0.078125 5.484375 0.078125 C 4.578125 0.078125 3.75 -0.128906 3 -0.546875 C 2.257812 -0.972656 1.675781 -1.566406 1.25 -2.328125 C 0.820312 -3.085938 0.609375 -3.941406 0.609375 -4.890625 Z M 0.609375 -4.890625 "
           id="path69" />
      </g>
    </g>
  </g>
  <g
     fill="#a33327"
     fill-opacity="1"
     id="g75">
    <g
       transform="translate(205.805574, 329.289192)"
       id="g74">
      <g
         id="g73">
        <path
           d="M 4.890625 -7.828125 C 5.472656 -7.828125 6 -7.703125 6.46875 -7.453125 C 6.9375 -7.203125 7.300781 -6.828125 7.5625 -6.328125 C 7.832031 -5.835938 7.96875 -5.238281 7.96875 -4.53125 L 7.96875 0 L 6.703125 0 L 6.703125 -4.34375 C 6.703125 -5.113281 6.507812 -5.703125 6.125 -6.109375 C 5.75 -6.515625 5.226562 -6.71875 4.5625 -6.71875 C 3.882812 -6.71875 3.347656 -6.503906 2.953125 -6.078125 C 2.554688 -5.660156 2.359375 -5.050781 2.359375 -4.25 L 2.359375 0 L 1.078125 0 L 1.078125 -10.390625 L 2.359375 -10.390625 L 2.359375 -6.59375 C 2.609375 -6.988281 2.953125 -7.289062 3.390625 -7.5 C 3.835938 -7.71875 4.335938 -7.828125 4.890625 -7.828125 Z M 4.890625 -7.828125 "
           id="path72" />
      </g>
    </g>
  </g>
  <g
     fill="#a33327"
     fill-opacity="1"
     id="g78">
    <g
       transform="translate(217.013743, 329.289192)"
       id="g77">
      <g
         id="g76">
        <path
           d="M 8.09375 -4.140625 C 8.09375 -3.898438 8.078125 -3.644531 8.046875 -3.375 L 1.90625 -3.375 C 1.957031 -2.613281 2.21875 -2.019531 2.6875 -1.59375 C 3.15625 -1.164062 3.726562 -0.953125 4.40625 -0.953125 C 4.957031 -0.953125 5.414062 -1.078125 5.78125 -1.328125 C 6.15625 -1.585938 6.414062 -1.9375 6.5625 -2.375 L 7.9375 -2.375 C 7.738281 -1.632812 7.328125 -1.03125 6.703125 -0.5625 C 6.085938 -0.101562 5.320312 0.125 4.40625 0.125 C 3.675781 0.125 3.019531 -0.0351562 2.4375 -0.359375 C 1.863281 -0.691406 1.414062 -1.160156 1.09375 -1.765625 C 0.769531 -2.367188 0.609375 -3.066406 0.609375 -3.859375 C 0.609375 -4.648438 0.765625 -5.34375 1.078125 -5.9375 C 1.398438 -6.539062 1.847656 -7.003906 2.421875 -7.328125 C 2.992188 -7.648438 3.65625 -7.8125 4.40625 -7.8125 C 5.132812 -7.8125 5.78125 -7.648438 6.34375 -7.328125 C 6.90625 -7.015625 7.335938 -6.578125 7.640625 -6.015625 C 7.941406 -5.460938 8.09375 -4.835938 8.09375 -4.140625 Z M 6.78125 -4.40625 C 6.78125 -4.894531 6.671875 -5.3125 6.453125 -5.65625 C 6.234375 -6.007812 5.9375 -6.273438 5.5625 -6.453125 C 5.195312 -6.640625 4.789062 -6.734375 4.34375 -6.734375 C 3.695312 -6.734375 3.144531 -6.523438 2.6875 -6.109375 C 2.238281 -5.703125 1.984375 -5.132812 1.921875 -4.40625 Z M 6.78125 -4.40625 "
           id="path75" />
      </g>
    </g>
  </g>
  <g
     fill="#a33327"
     fill-opacity="1"
     id="g81">
    <g
       transform="translate(227.941378, 329.289192)"
       id="g80">
      <g
         id="g79">
        <path
           d="M 4.203125 -6.640625 L 2.59375 -6.640625 L 2.59375 0 L 1.3125 0 L 1.3125 -6.640625 L 0.328125 -6.640625 L 0.328125 -7.6875 L 1.3125 -7.6875 L 1.3125 -8.234375 C 1.3125 -9.097656 1.535156 -9.726562 1.984375 -10.125 C 2.429688 -10.519531 3.144531 -10.71875 4.125 -10.71875 L 4.125 -9.65625 C 3.5625 -9.65625 3.164062 -9.546875 2.9375 -9.328125 C 2.707031 -9.109375 2.59375 -8.742188 2.59375 -8.234375 L 2.59375 -7.6875 L 4.203125 -7.6875 Z M 4.203125 -6.640625 "
           id="path78" />
      </g>
    </g>
  </g>
  <g
     fill="#a33327"
     fill-opacity="1"
     id="g84">
    <g
       transform="translate(234.787262, 329.289192)"
       id="g83">
      <g
         id="g82" />
    </g>
  </g>
  <g
     fill="#a33327"
     fill-opacity="1"
     id="g87">
    <g
       transform="translate(240.763498, 329.289192)"
       id="g86">
      <g
         id="g85">
        <path
           d="M 1.734375 -8.9375 C 1.492188 -8.9375 1.289062 -9.019531 1.125 -9.1875 C 0.957031 -9.351562 0.875 -9.5625 0.875 -9.8125 C 0.875 -10.050781 0.957031 -10.253906 1.125 -10.421875 C 1.289062 -10.585938 1.492188 -10.671875 1.734375 -10.671875 C 1.972656 -10.671875 2.171875 -10.585938 2.328125 -10.421875 C 2.492188 -10.253906 2.578125 -10.050781 2.578125 -9.8125 C 2.578125 -9.5625 2.492188 -9.351562 2.328125 -9.1875 C 2.171875 -9.019531 1.972656 -8.9375 1.734375 -8.9375 Z M 2.359375 -7.6875 L 2.359375 0 L 1.078125 0 L 1.078125 -7.6875 Z M 2.359375 -7.6875 "
           id="path84" />
      </g>
    </g>
  </g>
  <g
     fill="#a33327"
     fill-opacity="1"
     id="g90">
    <g
       transform="translate(246.445173, 329.289192)"
       id="g89">
      <g
         id="g88">
        <path
           d="M 4.828125 -7.828125 C 5.765625 -7.828125 6.519531 -7.539062 7.09375 -6.96875 C 7.675781 -6.40625 7.96875 -5.59375 7.96875 -4.53125 L 7.96875 0 L 6.703125 0 L 6.703125 -4.34375 C 6.703125 -5.113281 6.507812 -5.703125 6.125 -6.109375 C 5.75 -6.515625 5.226562 -6.71875 4.5625 -6.71875 C 3.882812 -6.71875 3.347656 -6.503906 2.953125 -6.078125 C 2.554688 -5.660156 2.359375 -5.050781 2.359375 -4.25 L 2.359375 0 L 1.078125 0 L 1.078125 -7.6875 L 2.359375 -7.6875 L 2.359375 -6.59375 C 2.609375 -6.988281 2.953125 -7.289062 3.390625 -7.5 C 3.828125 -7.71875 4.304688 -7.828125 4.828125 -7.828125 Z M 4.828125 -7.828125 "
           id="path87" />
      </g>
    </g>
  </g>
  <g
     fill="#a33327"
     fill-opacity="1"
     id="g93">
    <g
       transform="translate(257.653334, 329.289192)"
       id="g92">
      <g
         id="g91" />
    </g>
  </g>
  <g
     fill="#a33327"
     fill-opacity="1"
     id="g96">
    <g
       transform="translate(263.62957, 329.289192)"
       id="g95">
      <g
         id="g94">
        <path
           d="M 7.921875 -9.78125 L 4.75 -3.6875 L 4.75 0 L 3.46875 0 L 3.46875 -3.6875 L 0.265625 -9.78125 L 1.6875 -9.78125 L 4.09375 -4.828125 L 6.515625 -9.78125 Z M 7.921875 -9.78125 "
           id="path93" />
      </g>
    </g>
  </g>
  <g
     fill="#a33327"
     fill-opacity="1"
     id="g99">
    <g
       transform="translate(274.052245, 329.289192)"
       id="g98">
      <g
         id="g97">
        <path
           d="M 4.4375 0.125 C 3.71875 0.125 3.0625 -0.0351562 2.46875 -0.359375 C 1.882812 -0.691406 1.425781 -1.160156 1.09375 -1.765625 C 0.769531 -2.367188 0.609375 -3.066406 0.609375 -3.859375 C 0.609375 -4.640625 0.773438 -5.332031 1.109375 -5.9375 C 1.453125 -6.539062 1.914062 -7.003906 2.5 -7.328125 C 3.09375 -7.648438 3.753906 -7.8125 4.484375 -7.8125 C 5.210938 -7.8125 5.875 -7.648438 6.46875 -7.328125 C 7.0625 -7.003906 7.523438 -6.539062 7.859375 -5.9375 C 8.203125 -5.34375 8.375 -4.648438 8.375 -3.859375 C 8.375 -3.066406 8.195312 -2.367188 7.84375 -1.765625 C 7.5 -1.160156 7.023438 -0.691406 6.421875 -0.359375 C 5.828125 -0.0351562 5.164062 0.125 4.4375 0.125 Z M 4.4375 -1 C 4.894531 -1 5.320312 -1.101562 5.71875 -1.3125 C 6.125 -1.53125 6.453125 -1.851562 6.703125 -2.28125 C 6.953125 -2.71875 7.078125 -3.242188 7.078125 -3.859375 C 7.078125 -4.472656 6.953125 -4.992188 6.703125 -5.421875 C 6.460938 -5.859375 6.144531 -6.179688 5.75 -6.390625 C 5.351562 -6.597656 4.925781 -6.703125 4.46875 -6.703125 C 4.007812 -6.703125 3.582031 -6.597656 3.1875 -6.390625 C 2.800781 -6.179688 2.488281 -5.859375 2.25 -5.421875 C 2.019531 -4.992188 1.90625 -4.472656 1.90625 -3.859375 C 1.90625 -3.234375 2.019531 -2.703125 2.25 -2.265625 C 2.476562 -1.835938 2.785156 -1.519531 3.171875 -1.3125 C 3.554688 -1.101562 3.976562 -1 4.4375 -1 Z M 4.4375 -1 "
           id="path96" />
      </g>
    </g>
  </g>
  <g
     fill="#a33327"
     fill-opacity="1"
     id="g102">
    <g
       transform="translate(285.260406, 329.289192)"
       id="g101">
      <g
         id="g100">
        <path
           d="M 7.90625 -7.6875 L 7.90625 0 L 6.625 0 L 6.625 -1.140625 C 6.382812 -0.742188 6.046875 -0.4375 5.609375 -0.21875 C 5.171875 0 4.691406 0.109375 4.171875 0.109375 C 3.566406 0.109375 3.023438 -0.0078125 2.546875 -0.25 C 2.078125 -0.5 1.703125 -0.875 1.421875 -1.375 C 1.148438 -1.875 1.015625 -2.476562 1.015625 -3.1875 L 1.015625 -7.6875 L 2.265625 -7.6875 L 2.265625 -3.359375 C 2.265625 -2.597656 2.457031 -2.015625 2.84375 -1.609375 C 3.226562 -1.203125 3.753906 -1 4.421875 -1 C 5.097656 -1 5.632812 -1.207031 6.03125 -1.625 C 6.425781 -2.050781 6.625 -2.664062 6.625 -3.46875 L 6.625 -7.6875 Z M 7.90625 -7.6875 "
           id="path99" />
      </g>
    </g>
  </g>
  <path
     stroke-linecap="butt"
     transform="matrix(1.054155, 0, 0, 1.05241, 63.983885, 312.275252)"
     fill="none"
     stroke-linejoin="miter"
     d="M 0.000464734 1.00044 L 235.623147 1.00044 "
     stroke="#a33327"
     stroke-width="2"
     stroke-opacity="1"
     stroke-miterlimit="4"
     id="path102" />
</svg>
